<?xml version="1.0" encoding="UTF-8" standalone="no"?>
<!-- Created with Inkscape (http://www.inkscape.org/) -->

<svg
   xmlns:dc="http://purl.org/dc/elements/1.1/"
   xmlns:cc="http://creativecommons.org/ns#"
   xmlns:rdf="http://www.w3.org/1999/02/22-rdf-syntax-ns#"
   xmlns:svg="http://www.w3.org/2000/svg"
   xmlns="http://www.w3.org/2000/svg"
   xmlns:sodipodi="http://sodipodi.sourceforge.net/DTD/sodipodi-0.dtd"
   xmlns:inkscape="http://www.inkscape.org/namespaces/inkscape"
   width="400"
   height="400"
   viewBox="0 0 400.00001 400"
   id="svg2"
   version="1.1"
   inkscape:version="0.91 r13725"
   sodipodi:docname="agora_logo_full.svg"
   inkscape:export-filename="C:\Users\cahil\Code\Projects\agora\agora_logo_full_1600x1600.png"
   inkscape:export-xdpi="360"
   inkscape:export-ydpi="360">
  <title
     id="title4281">Agora Logo Full</title>
  <defs
     id="defs4" />
  <sodipodi:namedview
     id="base"
     pagecolor="#ffffff"
     bordercolor="#666666"
     borderopacity="0"
     inkscape:pageopacity="0.0"
     inkscape:pageshadow="2"
     inkscape:zoom="0.49497475"
     inkscape:cx="-161.90591"
     inkscape:cy="470.51768"
     inkscape:document-units="px"
     inkscape:current-layer="layer1"
     showgrid="false"
     inkscape:window-width="1500"
     inkscape:window-height="937"
     inkscape:window-x="-8"
     inkscape:window-y="-8"
     inkscape:window-maximized="1"
     units="px" />
  <metadata
     id="metadata7">
    <rdf:RDF>
      <cc:Work
         rdf:about="">
        <dc:format>image/svg+xml</dc:format>
        <dc:type
           rdf:resource="http://purl.org/dc/dcmitype/StillImage" />
        <dc:title>Agora Logo Full</dc:title>
      </cc:Work>
    </rdf:RDF>
  </metadata>
  <g
     inkscape:label="Layer 1"
     inkscape:groupmode="layer"
     id="layer1"
     transform="translate(0,-652.36216)">
    <g
       id="g3413"
       transform="matrix(3.125,0,0,3.125,100,677.36216)">
      <g
         id="Layer_1">
        <g
           id="g3341">
          <circle
             id="circle3343"
             r="32"
             cy="32"
             cx="32"
             class="st0"
             style="fill:#4f5d73" />
        </g>
        <g
           id="g3345"
           class="st1"
           style="opacity:0.2">
          <path
             id="path3347"
             d="M 32.1,39.7 C 30.5,41.2 26,52.2 26,52.2 c -0.7,1.2 0.3,2.1 2.6,0.9 l 8.1,-4.4 c 4.4,-2.4 5.2,-3.1 5.2,-8 l -0.8,-5.9 c -0.3,-2 -1.8,-2.4 -3.3,-0.8 l -5.7,5.7 z"
             class="st2"
             inkscape:connector-curvature="0"
             style="fill:#231f20" />
        </g>
        <g
           id="g3349"
           class="st1"
           style="opacity:0.2">
          <path
             id="path3351"
             d="m 27.1,34.7 c -1.6,1.6 -12.5,6.1 -12.5,6.1 -1.2,0.7 -2.1,-0.3 -0.9,-2.6 L 18,30 c 2.4,-4.4 3.1,-5.2 8,-5.2 l 5.9,0.8 c 2,0.3 2.4,1.8 0.8,3.3 l -5.6,5.8 z"
             class="st2"
             inkscape:connector-curvature="0"
             style="fill:#231f20" />
        </g>
        <g
           id="g3353">
          <path
             id="path3355"
             d="M 32.1,37.7 C 30.5,39.2 26,50.2 26,50.2 c -0.7,1.2 0.3,2.1 2.6,0.9 l 8.1,-4.4 c 4.4,-2.4 5.2,-3.1 5.2,-8 l -0.8,-5.9 c -0.3,-2 -1.8,-2.4 -3.3,-0.8 l -5.7,5.7 z"
             class="st3"
             inkscape:connector-curvature="0"
             style="fill:#c75c5c" />
        </g>
        <g
           id="g3357">
          <path
             id="path3359"
             d="m 27.1,32.7 c -1.6,1.6 -12.5,6.1 -12.5,6.1 -1.2,0.7 -2.1,-0.3 -0.9,-2.6 L 18,28 c 2.4,-4.4 3.1,-5.2 8,-5.2 l 5.9,0.8 c 2,0.3 2.4,1.8 0.8,3.3 l -5.6,5.8 z"
             class="st3"
             inkscape:connector-curvature="0"
             style="fill:#c75c5c" />
        </g>
        <g
           id="g3361"
           class="st1"
           style="opacity:0.2">
          <path
             id="path3363"
             d="m 21.2,39.5 c 5.1,-5.1 9.3,-3.5 9.3,-3.5 0,0 1.5,4.3 -3.5,9.3 -5,5 -13.3,8.8 -13.9,8.1 -0.6,-0.5 3.1,-8.8 8.1,-13.9 z"
             class="st2"
             inkscape:connector-curvature="0"
             style="fill:#231f20" />
        </g>
        <g
           id="g3365">
          <path
             id="path3367"
             d="m 21.2,37.5 c 5.1,-5.1 9.3,-3.5 9.3,-3.5 0,0 1.5,4.3 -3.5,9.3 -5,5 -13.3,8.8 -13.9,8.1 -0.6,-0.5 3.1,-8.8 8.1,-13.9 z"
             class="st4"
             inkscape:connector-curvature="0"
             style="fill:#e0995e" />
        </g>
        <g
           id="g3369">
          <path
             id="path3371"
             d="m 25.5,33.3 c 5.1,-5.1 9.3,-3.5 9.3,-3.5 0,0 1.5,4.3 -3.5,9.3 -5,5 -13.3,8.8 -13.9,8.1 -0.7,-0.6 3,-8.8 8.1,-13.9 z"
             class="st5"
             inkscape:connector-curvature="0"
             style="fill:#f5cf87" />
        </g>
        <g
           id="g3373"
           class="st1"
           style="opacity:0.2">
          <path
             id="path3375"
             d="m 43.6,37.1 c -7.8,7.8 -19.8,5.7 -19.8,5.7 0,0 -2.1,-12 5.7,-19.8 7.8,-7.8 19.6,-8.6 21.2,-7.1 1.5,1.5 0.7,13.4 -7.1,21.2 z"
             class="st2"
             inkscape:connector-curvature="0"
             style="fill:#231f20" />
        </g>
        <g
           id="g3377">
          <path
             id="path3379"
             d="m 43.6,35.1 c -7.8,7.8 -19.8,5.7 -19.8,5.7 0,0 -2.1,-12 5.7,-19.8 7.8,-7.8 19.6,-8.6 21.2,-7.1 1.5,1.5 0.7,13.4 -7.1,21.2 z"
             class="st6"
             inkscape:connector-curvature="0"
             style="fill:#e0e0d1" />
        </g>
        <g
           id="g3381"
           class="st1"
           style="opacity:0.2">
          <path
             id="path3383"
             d="m 21,47 c -0.8,0.8 -1.3,1.5 -2.1,0.7 l 0,0 c -0.8,-0.8 -0.1,-1.3 0.7,-2.1 l 9.9,-12.7 c 0.8,-0.8 4.2,-1.5 4.9,-0.7 l 0,0 c 0.8,0.8 0.1,4.2 -0.7,4.9 L 21,47 Z"
             class="st2"
             inkscape:connector-curvature="0"
             style="fill:#231f20" />
        </g>
        <g
           id="g3385">
          <path
             id="path3387"
             d="m 21,45 c -0.8,0.8 -1.3,1.5 -2.1,0.7 l 0,0 c -0.8,-0.8 -0.1,-1.3 0.7,-2.1 l 9.9,-12.7 c 0.8,-0.8 4.2,-1.5 4.9,-0.7 l 0,0 c 0.8,0.8 0.1,4.2 -0.7,4.9 L 21,45 Z"
             class="st3"
             inkscape:connector-curvature="0"
             style="fill:#c75c5c" />
        </g>
        <g
           id="g3389"
           class="st1"
           style="opacity:0.2">
          <circle
             id="circle3391"
             r="4"
             cy="27.1"
             cx="39.599998"
             class="st2"
             style="fill:#231f20" />
        </g>
        <g
           id="g3393"
           class="st1"
           style="opacity:0.2">
          <circle
             id="circle3395"
             r="2"
             cy="21.5"
             cx="45.299999"
             class="st2"
             style="fill:#231f20" />
        </g>
        <g
           id="g3397">
          <circle
             id="circle3399"
             r="4"
             cy="25.1"
             cx="39.599998"
             class="st0"
             style="fill:#4f5d73" />
        </g>
        <g
           id="g3401">
          <circle
             id="circle3403"
             r="2"
             cy="19.5"
             cx="45.299999"
             class="st0"
             style="fill:#4f5d73" />
        </g>
      </g>
      <g
         id="Layer_2" />
    </g>
    <flowRoot
       xml:space="preserve"
       id="flowRoot3449"
       style="font-style:normal;font-variant:normal;font-weight:normal;font-stretch:normal;font-size:40px;line-height:125%;font-family:Quicksand;-inkscape-font-specification:Quicksand;letter-spacing:0px;word-spacing:0px;fill:#000000;fill-opacity:1;stroke:none;stroke-width:1px;stroke-linecap:butt;stroke-linejoin:miter;stroke-opacity:1"><flowRegion
         id="flowRegion3451"><rect
           id="rect3453"
           width="531.34021"
           height="103.03556"
           x="142.4315"
           y="693.75806"
           style="font-style:normal;font-variant:normal;font-weight:normal;font-stretch:normal;font-family:Quicksand;-inkscape-font-specification:Quicksand" /></flowRegion><flowPara
         id="flowPara3455" /></flowRoot>    <flowRoot
       xml:space="preserve"
       id="flowRoot3457"
       style="font-style:normal;font-weight:normal;font-size:40px;line-height:125%;font-family:sans-serif;letter-spacing:0px;word-spacing:0px;fill:#000000;fill-opacity:1;stroke:none;stroke-width:1px;stroke-linecap:butt;stroke-linejoin:miter;stroke-opacity:1"><flowRegion
         id="flowRegion3459"><rect
           id="rect3461"
           width="506.08643"
           height="82.832512"
           x="144.45181"
           y="698.80884" /></flowRegion><flowPara
         id="flowPara3463"
         style="font-style:normal;font-variant:normal;font-weight:normal;font-stretch:normal;font-size:90px;font-family:Quicksand;-inkscape-font-specification:Quicksand">Agora</flowPara></flowRoot>    <flowRoot
       xml:space="preserve"
       id="flowRoot3465"
       style="font-style:normal;font-variant:normal;font-weight:normal;font-stretch:normal;font-size:40px;line-height:125%;font-family:Quicksand;-inkscape-font-specification:Quicksand;letter-spacing:0px;word-spacing:0px;fill:#000000;fill-opacity:1;stroke:none;stroke-width:1px;stroke-linecap:butt;stroke-linejoin:miter;stroke-opacity:1"><flowRegion
         id="flowRegion3467"><rect
           id="rect3469"
           width="507.09659"
           height="127.27922"
           x="143.44167"
           y="698.80884"
           style="font-style:normal;font-variant:normal;font-weight:normal;font-stretch:normal;font-family:Quicksand;-inkscape-font-specification:Quicksand" /></flowRegion><flowPara
         id="flowPara3471" /></flowRoot>    <flowRoot
       xml:space="preserve"
       id="flowRoot3473"
       style="font-style:normal;font-variant:normal;font-weight:normal;font-stretch:normal;font-size:90px;line-height:125%;font-family:Quicksand;-inkscape-font-specification:'Quicksand, Normal';text-align:center;letter-spacing:0px;word-spacing:0px;writing-mode:lr-tb;text-anchor:middle;fill:#e0995e;fill-opacity:1;stroke:#e0995e;stroke-width:3.09857424;stroke-linecap:butt;stroke-linejoin:miter;stroke-miterlimit:4;stroke-dasharray:none;stroke-opacity:1"
       transform="matrix(0.80682269,0,0,0.80682269,-99.792337,290.34653)"><flowRegion
         id="flowRegion3475"><rect
           id="rect3477"
           width="747.51282"
           height="135.36046"
           x="2.1021829e-006"
           y="729.1134"
           style="font-style:normal;font-variant:normal;font-weight:normal;font-stretch:normal;font-size:90px;line-height:125%;font-family:Quicksand;-inkscape-font-specification:'Quicksand, Normal';text-align:center;writing-mode:lr-tb;text-anchor:middle;fill:#e0995e;fill-opacity:1;stroke:#e0995e;stroke-width:3.09857424;stroke-linejoin:miter;stroke-miterlimit:4;stroke-dasharray:none;stroke-opacity:1" /></flowRegion><flowPara
         id="flowPara3479"
         style="font-style:normal;font-variant:normal;font-weight:normal;font-stretch:normal;font-size:90px;line-height:125%;font-family:Quicksand;-inkscape-font-specification:'Quicksand, Normal';text-align:center;writing-mode:lr-tb;text-anchor:middle;fill:#e0995e;fill-opacity:1;stroke:#e0995e;stroke-width:3.09857424;stroke-linejoin:miter;stroke-miterlimit:4;stroke-dasharray:none;stroke-opacity:1">Agora</flowPara></flowRoot>    <flowRoot
       xml:space="preserve"
       id="flowRoot4283"
       style="font-style:normal;font-weight:normal;font-size:40px;line-height:125%;font-family:sans-serif;letter-spacing:0px;word-spacing:0px;fill:#000000;fill-opacity:1;stroke:none;stroke-width:1px;stroke-linecap:butt;stroke-linejoin:miter;stroke-opacity:1"
       transform="matrix(0.99073048,0,0,0.99073048,26.794461,465.43221)"><flowRegion
         id="flowRegion4285"><rect
           id="rect4287"
           width="371.73615"
           height="62.629459"
           x="22.223356"
           y="519.18781" /></flowRegion><flowPara
         id="flowPara4289"
         style="font-style:normal;font-variant:normal;font-weight:normal;font-stretch:normal;font-family:Quicksand;-inkscape-font-specification:Quicksand;fill:#4f5d73;fill-opacity:1">Web Playground</flowPara></flowRoot>  </g>
  <style
     id="style3338"
     type="text/css">
	.st0{fill:#4F5D73;}
	.st1{opacity:0.2;}
	.st2{fill:#231F20;}
	.st3{fill:#C75C5C;}
	.st4{fill:#E0995E;}
	.st5{fill:#F5CF87;}
	.st6{fill:#E0E0D1;}
</style>
</svg>
