<?xml version="1.0"?>
<svg xmlns="http://www.w3.org/2000/svg" xmlns:svg="http://www.w3.org/2000/svg" width="400.00001" height="400">
    <style>
        .st0{fill:#4f5d73}.st1{opacity:.2}.st2{fill:#231f20}.st3{fill:#c75c5c}
    </style>
    <g class="layer">
        <title>
            Layer 1
        </title>
        Agora
        <g id="svg_1">
            <g id="g3413" transform="translate(100 677.362) scale(3.125 3.125)">
                <g id="Layer_1">
                    <g id="g3341">
                        <circle id="circle3343" cx="32" cy="-176.755905" r="32" fill="#4f5d73" class="st0"/>
                    </g>
                    <g id="g3345" class="st1" opacity="0.2">
                        <path id="path3347" fill="#231f20" d="m32.1,-169.055905c-1.6,1.5 -6.1,12.5 -6.1,12.5c-0.7,1.2 0.3,2.1 2.6,0.9l8.1,-4.4c4.4,-2.4 5.2,-3.1 5.2,-8l-0.8,-5.9c-0.3,-2 -1.8,-2.4 -3.3,-0.8l-5.7,5.7z" class="st2"/>
                    </g>
                    <g id="g3349" class="st1" opacity="0.2">
                        <path id="path3351" fill="#231f20" d="m27.1,-174.055905c-1.6,1.6 -12.5,6.1 -12.5,6.1c-1.2,0.7 -2.1,-0.3 -0.9,-2.6l4.3,-8.2c2.4,-4.4 3.1,-5.2 8,-5.2l5.9,0.8c2,0.3 2.4,1.8 0.8,3.3l-5.6,5.8z" class="st2"/>
                    </g>
                    <g id="g3353">
                        <path id="path3355" fill="#c75c5c" d="m32.1,-171.055905c-1.6,1.5 -6.1,12.5 -6.1,12.5c-0.7,1.2 0.3,2.1 2.6,0.9l8.1,-4.4c4.4,-2.4 5.2,-3.1 5.2,-8l-0.8,-5.9c-0.3,-2 -1.8,-2.4 -3.3,-0.8l-5.7,5.7z" class="st3"/>
                    </g>
                    <g id="g3357">
                        <path id="path3359" fill="#c75c5c" d="m27.1,-176.055905c-1.6,1.6 -12.5,6.1 -12.5,6.1c-1.2,0.7 -2.1,-0.3 -0.9,-2.6l4.3,-8.2c2.4,-4.4 3.1,-5.2 8,-5.2l5.9,0.8c2,0.3 2.4,1.8 0.8,3.3l-5.6,5.8z" class="st3"/>
                    </g>
                    <g id="g3361" class="st1" opacity="0.2">
                        <path id="path3363" fill="#231f20" d="m21.2,-169.255905c5.1,-5.1 9.3,-3.5 9.3,-3.5s1.5,4.3 -3.5,9.3c-5,5 -13.3,8.8 -13.9,8.1c-0.6,-0.5 3.1,-8.8 8.1,-13.9z" class="st2"/>
                    </g>
                    <g id="g3365">
                        <path id="path3367" fill="#e0995e" d="m21.2,-171.255905c5.1,-5.1 9.3,-3.5 9.3,-3.5s1.5,4.3 -3.5,9.3c-5,5 -13.3,8.8 -13.9,8.1c-0.6,-0.5 3.1,-8.8 8.1,-13.9z"/>
                    </g>
                    <g id="g3369">
                        <path id="path3371" fill="#f5cf87" d="m25.5,-175.455905c5.1,-5.1 9.3,-3.5 9.3,-3.5s1.5,4.3 -3.5,9.3c-5,5 -13.3,8.8 -13.9,8.1c-0.7,-0.6 3,-8.8 8.1,-13.9z"/>
                    </g>
                    <g id="g3373" class="st1" opacity="0.2">
                        <path id="path3375" fill="#231f20" d="m43.6,-171.655905c-7.8,7.8 -19.8,5.7 -19.8,5.7s-2.1,-12 5.7,-19.8c7.8,-7.8 19.6,-8.6 21.2,-7.1c1.5,1.5 0.7,13.4 -7.1,21.2z" class="st2"/>
                    </g>
                    <g id="g3377">
                        <path id="path3379" fill="#e0e0d1" d="m43.6,-173.655905c-7.8,7.8 -19.8,5.7 -19.8,5.7s-2.1,-12 5.7,-19.8c7.8,-7.8 19.6,-8.6 21.2,-7.1c1.5,1.5 0.7,13.4 -7.1,21.2z"/>
                    </g>
                    <g id="g3381" class="st1" opacity="0.2">
                        <path id="path3383" fill="#231f20" d="m21,-161.755905c-0.8,0.8 -1.3,1.5 -2.1,0.7s-0.1,-1.3 0.7,-2.1l9.9,-12.7c0.8,-0.8 4.2,-1.5 4.9,-0.7c0.8,0.8 0.1,4.2 -0.7,4.9l-12.7,9.9z" class="st2"/>
                    </g>
                    <g id="g3385">
                        <path id="path3387" fill="#c75c5c" d="m21,-163.755905c-0.8,0.8 -1.3,1.5 -2.1,0.7s-0.1,-1.3 0.7,-2.1l9.9,-12.7c0.8,-0.8 4.2,-1.5 4.9,-0.7c0.8,0.8 0.1,4.2 -0.7,4.9l-12.7,9.9z" class="st3"/>
                    </g>
                    <g id="g3389" class="st1" opacity="0.2">
                        <circle id="circle3391" cx="39.6" cy="-181.655905" r="4" fill="#231f20" class="st2"/>
                    </g>
                    <g id="g3393" class="st1" opacity="0.2">
                        <circle id="circle3395" cx="45.3" cy="-187.255905" r="2" fill="#231f20" class="st2"/>
                    </g>
                    <g id="g3397">
                        <circle id="circle3399" cx="39.6" cy="-183.655905" r="4" fill="#4f5d73" class="st0"/>
                    </g>
                    <g id="g3401">
                        <circle id="circle3403" cx="45.3" cy="-189.255905" r="2" fill="#4f5d73" class="st0"/>
                    </g>
                </g>
            </g>
            <g id="g97" fill="#e0995e" stroke="#e0995e" stroke-width="2.5" font-family="Quicksand" font-size="90" font-weight="400" text-anchor="middle">
                <path id="path3956" d="m144.25341,292.497477l-7.48124,0l-5.17659,-14.71427l-22.83371,0l-5.17658,14.71427l-7.12667,0l19.21719,-52.79409l9.3604,0l19.2172,52.79409zm-14.82064,-20.7418l-9.25404,-25.91839l-9.28949,25.91839l18.54353,0z"/>
                <path id="path3958" d="m183.85784,287.994557q0,10.06952 -4.57383,14.78518q-4.57384,4.71566 -14.07606,4.71566q-3.15559,0 -6.16937,-0.46093q-2.9783,-0.42547 -5.8857,-1.24096l0,-6.80757l0.35456,0q1.63098,0.63821 5.17659,1.56007q3.5456,0.95731 7.09121,0.95731q3.40378,0 5.63752,-0.81548q2.23373,-0.8155 3.47469,-2.26919q1.24096,-1.38279 1.7728,-3.33287q0.53185,-1.95009 0.53185,-4.36111l0,-3.61651q-3.01377,2.41101 -5.77934,3.61651q-2.73012,1.17006 -6.98485,1.17006q-7.09121,0 -11.27503,-5.10568q-4.14836,-5.14113 -4.14836,-14.46607q0,-5.10568 1.41824,-8.79311q1.4537,-3.72289 3.93562,-6.41755q2.30465,-2.51738 5.60206,-3.90017q3.29742,-1.41824 6.55938,-1.41824q3.43924,0 5.74389,0.70912q2.3401,0.67366 4.92839,2.09191l0.42547,-1.70189l6.24027,0l0,35.10151zm-6.66574,-6.38209l0,-21.59276q-2.6592,-1.2055 -4.96385,-1.70188q-2.26919,-0.53185 -4.53838,-0.53185q-5.49569,0 -8.65129,3.68743q-3.15558,3.68743 -3.15558,10.70774q0,6.66574 2.3401,10.10498q2.3401,3.43924 7.76488,3.43924q2.9074,0 5.8148,-1.09914q2.94285,-1.13459 5.38932,-3.01376z"/>
                <path id="path3960" d="m230.73078,272.712987q0,9.67951 -4.96386,15.28157q-4.96385,5.60206 -13.29603,5.60206q-8.40309,0 -13.36693,-5.60206q-4.9284,-5.60206 -4.9284,-15.28157q0,-9.6795 4.9284,-15.28156q4.96384,-5.63752 13.36693,-5.63752q8.33218,0 13.29603,5.63752q4.96386,5.60206 4.96386,15.28156zm-6.87848,0q0,-7.69397 -3.01378,-11.41686q-3.01376,-3.75834 -8.36763,-3.75834q-5.42477,0 -8.43854,3.75834q-2.97831,3.72289 -2.97831,11.41686q0,7.44578 3.01376,11.31049q3.01377,3.82925 8.40309,3.82925q5.31842,0 8.33218,-3.79379q3.04923,-3.82926 3.04923,-11.34595z"/>
                <path id="path3962" d="m265.79683,260.161537l-0.35456,0q-1.48916,-0.35456 -2.9074,-0.49639q-1.38279,-0.17728 -3.29741,-0.17728q-3.08468,0 -5.95663,1.38279q-2.87194,1.34733 -5.53114,3.51016l0,28.11666l-6.66574,0l0,-39.60443l6.66574,0l0,5.85025q3.97108,-3.19105 6.98484,-4.50292q3.04923,-1.34733 6.20482,-1.34733q1.73734,0 2.51738,0.10636q0.78004,0.0709 2.3401,0.31911l0,6.84302z"/>
                <path id="path3964" d="m301.64292,292.497477l-6.63028,0l0,-4.21927q-0.88641,0.60275 -2.41101,1.70189q-1.48916,1.06368 -2.90741,1.70189q-1.66643,0.81549 -3.82925,1.34733q-2.16282,0.5673 -5.07022,0.5673q-5.35386,0 -9.07675,-3.54561q-3.72289,-3.54561 -3.72289,-9.0413q0,-4.50292 1.91463,-7.26849q1.95008,-2.80103 5.53115,-4.39656q3.61652,-1.59552 8.68673,-2.16281q5.07022,-0.56731 10.88502,-0.85095l0,-1.02822q0,-2.26919 -0.81549,-3.75835q-0.78004,-1.48916 -2.26919,-2.3401q-1.41825,-0.81549 -3.40378,-1.09914q-1.98554,-0.28365 -4.14837,-0.28365q-2.62375,0 -5.85025,0.70912q-3.2265,0.67367 -6.66574,1.98554l-0.35456,0l0,-6.77211q1.95008,-0.53184 5.63751,-1.17005t7.2685,-0.63821q4.18382,0 7.2685,0.70912q3.12013,0.67367 5.38932,2.3401q2.23373,1.63098 3.40379,4.21928q1.17004,2.58829 1.17004,6.41754l0,26.87571zm-6.63028,-9.75042l0,-11.02684q-3.04923,0.17728 -7.19759,0.53184q-4.1129,0.35456 -6.52392,1.02823q-2.87194,0.81549 -4.64474,2.55283q-1.7728,1.7019 -1.7728,4.71566q0,3.40379 2.05645,5.14113q2.05645,1.70189 6.27572,1.70189q3.51015,0 6.41755,-1.34733q2.9074,-1.38278 5.38933,-3.29741z"/>
            </g>
            <g id="flowRoot4283" fill="#4f5d73" font-family="Quicksand" font-size="40" font-weight="400" transform="translate(26.7945 465.432) scale(0.99073 0.99073)">
                <path id="path65" d="m58.38266,-130.358687q0.56,0 0.92,0.32t0.36,0.88l-0.08,0.52l-8.84,25.6q-0.12,0.36 -0.44,0.56q-0.28,0.2 -0.64,0.2q-0.92,0 -1.2,-0.76l-6.92,-17.08l-6.92,17.08q-0.36,0.76 -1.2,0.76q-0.36,0 -0.68,-0.2q-0.28,-0.2 -0.36,-0.56l-8.84,-25.6q-0.12,-0.24 -0.12,-0.48q0,-0.56 0.4,-0.88q0.44,-0.36 0.92,-0.36q0.4,0 0.72,0.2q0.32,0.2 0.44,0.56l7.84,22.88l6.72,-16.76q0.36,-0.8 1.12,-0.76q0.4,-0.04 0.68,0.2q0.32,0.2 0.48,0.56l6.68,16.76l7.76,-22.88q0.32,-0.76 1.2,-0.76z"/>
                <path id="path67" d="m80.70953,-113.678687q0,0.48 -0.36,0.84q-0.36,0.32 -0.84,0.32l-15.12,0q0,2.4 0.96,4.32q1,1.88 2.8,3q1.84,1.08 4.32,1.08q1.92,0 3.44,-0.8t2.44,-2.04q0.44,-0.36 0.84,-0.36q0.4,0 0.72,0.32q0.32,0.32 0.32,0.72q0,0.44 -0.4,0.84q-1.28,1.56 -3.24,2.56q-1.92,1 -4.08,1q-3.08,0 -5.44,-1.32q-2.36,-1.32 -3.68,-3.68q-1.32,-2.4 -1.32,-5.52q0,-3.28 1.28,-5.72q1.32,-2.48 3.48,-3.76q2.16,-1.32 4.6,-1.32q2.4,0 4.48,1.12q2.12,1.12 3.44,3.28q1.32,2.16 1.36,5.12zm-9.28,-7.2q-2.32,0 -4.32,1.6q-1.96,1.6 -2.52,4.6l13.64,0l0,-0.32q-0.2,-1.8 -1.2,-3.12q-1,-1.36 -2.52,-2.04q-1.48,-0.72 -3.08,-0.72z"/>
                <path id="path69" d="m95.41516,-123.198687q2.64,0 4.8,1.36q2.16,1.36 3.36,3.8q1.24,2.4 1.24,5.44q0,3 -1.24,5.48q-1.2,2.44 -3.36,3.84q-2.12,1.4 -4.76,1.4q-2.28,0 -4.24,-1.12q-1.92,-1.16 -3.12,-3.04l0,2.64q0,0.52 -0.36,0.88q-0.32,0.36 -0.84,0.36t-0.88,-0.36q-0.32,-0.36 -0.32,-0.88l0,-27.24q0,-0.52 0.32,-0.84q0.36,-0.36 0.88,-0.36t0.84,0.36q0.36,0.32 0.36,0.84l0,11.8q1.08,-1.96 3.04,-3.16q1.96,-1.2 4.28,-1.2zm-0.2,19.08q2.08,0 3.72,-1.12q1.68,-1.12 2.6,-3.04q0.96,-1.96 0.96,-4.32q0,-2.4 -0.96,-4.28q-0.92,-1.92 -2.6,-3q-1.64,-1.08 -3.72,-1.08q-2.12,0 -3.8,1.08q-1.68,1.04 -2.6,2.96q-0.92,1.92 -0.92,4.32q0,2.4 0.92,4.36q0.96,1.92 2.6,3.04q1.68,1.08 3.8,1.08z"/>
                <path id="path71" d="m131.97516,-130.278687q2.2,0 3.96,1.04q1.76,1 2.72,2.84q1,1.8 1,4.08q0,2.28 -1,4.16q-0.96,1.88 -2.72,2.96q-1.76,1.08 -3.96,1.08l-8.28,0l0,10.64q0,0.52 -0.36,0.88q-0.32,0.32 -0.84,0.32t-0.88,-0.32q-0.32,-0.36 -0.32,-0.88l0,-25.6q0,-0.52 0.32,-0.84q0.36,-0.36 0.88,-0.36l9.48,0zm0,13.84q2.32,0 3.76,-1.68t1.44,-4.2q0,-2.48 -1.44,-4.04t-3.76,-1.56l-8.28,0l0,11.48l8.28,0z"/>
                <path id="path73" d="m147.16328,-103.478687q0,0.52 -0.36,0.88q-0.32,0.32 -0.84,0.32t-0.88,-0.32q-0.32,-0.36 -0.32,-0.88l0,-27.2q0,-0.52 0.32,-0.84q0.36,-0.36 0.88,-0.36t0.84,0.36q0.36,0.32 0.36,0.84l0,27.2z"/>
                <path id="path75" d="m170.34203,-122.718687q0.52,0 0.84,0.36q0.36,0.36 0.36,0.88l0,18q0,0.52 -0.36,0.88q-0.32,0.32 -0.84,0.32t-0.88,-0.32q-0.32,-0.36 -0.32,-0.88l0,-2.68q-1,1.8 -3,3.04t-4.36,1.24q-2.68,0 -4.84,-1.4q-2.12,-1.4 -3.36,-3.84q-1.2,-2.44 -1.2,-5.48q0,-3.04 1.24,-5.44q1.24,-2.44 3.36,-3.8q2.16,-1.36 4.76,-1.36q2.4,0 4.4,1.16q2,1.16 3,3.04l0,-2.48q0,-0.52 0.32,-0.88q0.36,-0.36 0.88,-0.36zm-8.32,18.6q2.08,0 3.72,-1.08q1.68,-1.12 2.6,-3.04q0.96,-1.96 0.96,-4.36q0,-2.32 -0.96,-4.24q-0.92,-1.92 -2.6,-3q-1.64,-1.12 -3.72,-1.12t-3.76,1.08q-1.64,1.08 -2.6,3q-0.92,1.88 -0.92,4.28q0,2.4 0.92,4.36q0.92,1.92 2.56,3.04q1.68,1.08 3.8,1.08z"/>
                <path id="path77" d="m192.57578,-123.078687q0.52,0 0.84,0.36q0.36,0.32 0.36,0.84l0,17.64q0,3.16 -1.24,5.4t-3.44,3.4q-2.2,1.16 -4.96,1.16q-1.68,0 -3.16,-0.36q-1.44,-0.36 -2.4,-0.96q-0.84,-0.52 -0.84,-1.16q0,-0.08 0.08,-0.4q0.12,-0.4 0.4,-0.6q0.28,-0.2 0.6,-0.2q0.24,0 0.48,0.12q2.56,1.4 4.88,1.4q3.32,0 5.24,-2.08q1.96,-2.08 1.96,-5.68l0,-1.4q-1,1.68 -2.88,2.72q-1.88,1 -4.08,1q-3.48,0 -5.28,-2.08q-1.8,-2.08 -1.8,-5.64l0,-12.28q0,-0.52 0.32,-0.84q0.36,-0.36 0.88,-0.36t0.84,0.36q0.36,0.32 0.36,0.84l0,11.92q0,2.88 1.24,4.36q1.28,1.48 3.96,1.48q1.64,0 3.12,-0.8q1.52,-0.84 2.4,-2.16q0.92,-1.36 0.92,-2.88l0,-11.92q0,-0.52 0.32,-0.84q0.36,-0.36 0.88,-0.36z"/>
                <path id="path79" d="m216.72516,-122.718687q0.52,0 0.84,0.36q0.36,0.32 0.36,0.88l0,17.32q0,3.12 -1.32,5.32q-1.28,2.24 -3.56,3.4q-2.24,1.16 -5.16,1.16q-1.4,0 -2.96,-0.36q-1.52,-0.36 -2.64,-0.92q-1.08,-0.56 -1.24,-1.16q-0.28,-0.28 -0.28,-0.64q0,-0.4 0.36,-0.64q0.16,-0.12 0.4,-0.12q0.24,0 0.92,0.28l0.84,0.36q2.48,0.96 4.64,0.96q3.56,0 5.56,-2.04q2.04,-2 2.04,-5.44l0,-2.48q-1,2.16 -3.16,3.4q-2.16,1.2 -4.52,1.2q-2.76,0 -5,-1.36q-2.2,-1.4 -3.48,-3.84q-1.28,-2.44 -1.28,-5.48q0,-3 1.28,-5.44q1.28,-2.44 3.48,-3.8q2.24,-1.4 4.96,-1.4q2.52,0 4.6,1.28q2.12,1.24 3.12,3l0,-2.56q0,-0.52 0.32,-0.88q0.36,-0.36 0.88,-0.36zm-8.68,18.6q2.2,0 3.92,-1.04q1.76,-1.08 2.72,-3q1,-1.96 1,-4.4q0,-2.44 -1,-4.36q-0.96,-1.92 -2.72,-2.96q-1.72,-1.08 -3.92,-1.08q-2.16,0 -3.92,1.12q-1.72,1.08 -2.72,3q-0.96,1.92 -0.96,4.28q0,2.4 0.96,4.32q1,1.92 2.72,3.04q1.76,1.08 3.92,1.08z"/>
                <path id="path81" d="m233.77078,-123.198687q0.8,0 1.44,0.32q0.64,0.32 0.64,0.96q0,0.56 -0.32,0.92q-0.32,0.32 -0.76,0.32q-0.2,0 -0.8,-0.2q-0.56,-0.2 -1.08,-0.2q-1.48,0 -2.96,1.16q-1.44,1.12 -2.4,2.92q-0.92,1.8 -0.92,3.64l0,9.88q0,0.52 -0.36,0.88q-0.32,0.32 -0.84,0.32t-0.88,-0.32q-0.32,-0.36 -0.32,-0.88l0,-17.92q0,-0.52 0.32,-0.84q0.36,-0.36 0.88,-0.36t0.84,0.36q0.36,0.32 0.36,0.84l0,3.52q0.92,-2.28 2.76,-3.76q1.88,-1.52 4.4,-1.56z"/>
                <path id="path83" d="m257.62203,-112.518687q0,3 -1.32,5.44q-1.32,2.44 -3.64,3.84q-2.32,1.36 -5.16,1.36q-2.84,0 -5.16,-1.36q-2.32,-1.4 -3.64,-3.84q-1.32,-2.44 -1.32,-5.44q0,-3 1.32,-5.44q1.32,-2.44 3.64,-3.84q2.32,-1.4 5.16,-1.4q2.84,0 5.16,1.4q2.32,1.4 3.64,3.84q1.32,2.44 1.32,5.44zm-2.4,0q0,-2.4 -1,-4.32q-1,-1.92 -2.8,-3q-1.76,-1.12 -3.92,-1.12t-3.92,1.12q-1.76,1.08 -2.8,3q-1,1.92 -1,4.32q0,2.36 1,4.28q1.04,1.92 2.8,3.04q1.76,1.08 3.92,1.08t3.92,-1.08q1.8,-1.08 2.8,-3q1,-1.92 1,-4.32z"/>
                <path id="path85" d="m277.85016,-122.598687q0.52,0 0.84,0.36q0.36,0.32 0.36,0.84l0,11.28q0,3.92 -2.2,6.04q-2.2,2.08 -6.08,2.08q-3.84,0 -6.04,-2.08q-2.16,-2.12 -2.16,-6.04l0,-11.28q0,-0.52 0.32,-0.84q0.36,-0.36 0.88,-0.36t0.84,0.36q0.36,0.32 0.36,0.84l0,11.28q0,2.88 1.52,4.4q1.52,1.48 4.28,1.48q2.8,0 4.32,-1.48q1.56,-1.52 1.56,-4.4l0,-11.28q0,-0.52 0.32,-0.84q0.36,-0.36 0.88,-0.36z"/>
                <path id="path87" d="m294.94453,-123.198687q3.72,0 5.44,2.2q1.76,2.16 1.76,5.76l0,11.76q0,0.52 -0.36,0.88q-0.36,0.32 -0.84,0.32q-0.52,0 -0.88,-0.32q-0.32,-0.36 -0.32,-0.88l0,-11.64q0,-2.6 -1.32,-4.2q-1.28,-1.64 -4,-1.64q-1.72,0 -3.28,0.8q-1.52,0.8 -2.48,2.16q-0.96,1.32 -0.96,2.88l0,11.64q0,0.52 -0.36,0.88q-0.32,0.32 -0.84,0.32t-0.88,-0.32q-0.32,-0.36 -0.32,-0.88l0,-17.92q0,-0.52 0.32,-0.84q0.36,-0.36 0.88,-0.36t0.84,0.36q0.36,0.32 0.36,0.84l0,2.2q1.08,-1.72 3.08,-2.84q2.04,-1.16 4.16,-1.16z"/>
                <path id="path89" d="m325.02953,-131.878687q0.52,0 0.84,0.36q0.36,0.32 0.36,0.84l0,27.2q0,0.52 -0.36,0.88q-0.32,0.32 -0.84,0.32t-0.88,-0.32q-0.32,-0.36 -0.32,-0.88l0,-2.8q-1,1.84 -3,3.12q-1.96,1.28 -4.36,1.28q-2.64,0 -4.8,-1.36q-2.12,-1.4 -3.36,-3.84q-1.24,-2.44 -1.24,-5.48q0,-3 1.24,-5.44q1.24,-2.44 3.36,-3.8q2.16,-1.4 4.76,-1.4q2.36,0 4.36,1.2q2,1.16 3.04,3.04l0,-11.72q0,-0.52 0.32,-0.84q0.36,-0.36 0.88,-0.36zm-8.32,27.76q2.08,0 3.72,-1.08q1.68,-1.08 2.6,-3q0.96,-1.96 0.96,-4.36q0,-2.36 -0.96,-4.28q-0.92,-1.92 -2.6,-3q-1.64,-1.12 -3.72,-1.12t-3.76,1.12q-1.64,1.08 -2.6,3q-0.92,1.92 -0.92,4.28q0,2.4 0.92,4.32q0.96,1.92 2.6,3.04q1.68,1.08 3.76,1.08z"/>
            </g>
        </g>
    </g>
</svg>
