<?xml version="1.0" encoding="UTF-8" standalone="no"?>
<!-- Generator: Adobe Illustrator 19.1.0, SVG Export Plug-In . SVG Version: 6.00 Build 0)  -->

<svg
   xmlns:dc="http://purl.org/dc/elements/1.1/"
   xmlns:cc="http://creativecommons.org/ns#"
   xmlns:rdf="http://www.w3.org/1999/02/22-rdf-syntax-ns#"
   xmlns:svg="http://www.w3.org/2000/svg"
   xmlns="http://www.w3.org/2000/svg"
   xmlns:sodipodi="http://sodipodi.sourceforge.net/DTD/sodipodi-0.dtd"
   xmlns:inkscape="http://www.inkscape.org/namespaces/inkscape"
   width="298"
   height="300"
   version="1.1"
   viewBox="0 0 298 300"
   xml:space="preserve"
   id="svg62"
   sodipodi:docname="agora_rocket_circle_inverse.svg"
   inkscape:version="0.92.3 (2405546, 2018-03-11)"><metadata
   id="metadata68"><rdf:RDF><cc:Work
       rdf:about=""><dc:format>image/svg+xml</dc:format><dc:type
         rdf:resource="http://purl.org/dc/dcmitype/StillImage" /><dc:title></dc:title></cc:Work></rdf:RDF></metadata><defs
   id="defs66" /><sodipodi:namedview
   pagecolor="#ffffff"
   bordercolor="#666666"
   borderopacity="1"
   objecttolerance="10"
   gridtolerance="10"
   guidetolerance="10"
   inkscape:pageopacity="0"
   inkscape:pageshadow="2"
   inkscape:window-width="1920"
   inkscape:window-height="1515"
   id="namedview64"
   showgrid="false"
   inkscape:zoom="2.2250293"
   inkscape:cx="156.55726"
   inkscape:cy="65.505792"
   inkscape:window-x="-11"
   inkscape:window-y="701"
   inkscape:window-maximized="0"
   inkscape:current-layer="svg62" />
<style
   type="text/css"
   id="style2">
	.st0{fill:#4F5D73;}
	.st1{opacity:0.2;}
	.st2{fill:#231F20;}
	.st3{fill:#C75C5C;}
	.st4{fill:#E0995E;}
	.st5{fill:#F5CF87;}
	.st6{fill:#E0E0D1;}
</style>
<g
   id="g931"><circle
     class="st0"
     cx="149.9995"
     cy="149.9995"
     r="147.4995"
     id="circle4"
     style="fill:#e0e0d1;stroke-width:4.60935926;fill-opacity:1" /><g
     class="st1"
     transform="matrix(4.6093594,0,0,4.6093594,2.5,2.5)"
     id="g8"
     style="opacity:0.2">
		<path
   class="st2"
   d="M 32.1,39.7 C 30.5,41.2 26,52.2 26,52.2 c -0.7,1.2 0.3,2.1 2.6,0.9 l 8.1,-4.4 c 4.4,-2.4 5.2,-3.1 5.2,-8 l -0.8,-5.9 c -0.3,-2 -1.8,-2.4 -3.3,-0.8 z"
   id="path6"
   inkscape:connector-curvature="0"
   style="fill:#231f20" />
	</g><g
     class="st1"
     transform="matrix(4.6093594,0,0,4.6093594,2.5,2.5)"
     id="g12"
     style="opacity:0.2">
		<path
   class="st2"
   d="m 27.1,34.7 c -1.6,1.6 -12.5,6.1 -12.5,6.1 -1.2,0.7 -2.1,-0.3 -0.9,-2.6 L 18,30 c 2.4,-4.4 3.1,-5.2 8,-5.2 l 5.9,0.8 c 2,0.3 2.4,1.8 0.8,3.3 z"
   id="path10"
   inkscape:connector-curvature="0"
   style="fill:#231f20" />
	</g><g
     transform="matrix(4.6093594,0,0,4.6093594,2.5,2.5)"
     id="g16">
		<path
   class="st3"
   d="M 32.1,37.7 C 30.5,39.2 26,50.2 26,50.2 c -0.7,1.2 0.3,2.1 2.6,0.9 l 8.1,-4.4 c 4.4,-2.4 5.2,-3.1 5.2,-8 l -0.8,-5.9 c -0.3,-2 -1.8,-2.4 -3.3,-0.8 z"
   id="path14"
   inkscape:connector-curvature="0"
   style="fill:#c75c5c" />
	</g><g
     transform="matrix(4.6093594,0,0,4.6093594,2.5,2.5)"
     id="g20">
		<path
   class="st3"
   d="m 27.1,32.7 c -1.6,1.6 -12.5,6.1 -12.5,6.1 -1.2,0.7 -2.1,-0.3 -0.9,-2.6 L 18,28 c 2.4,-4.4 3.1,-5.2 8,-5.2 l 5.9,0.8 c 2,0.3 2.4,1.8 0.8,3.3 z"
   id="path18"
   inkscape:connector-curvature="0"
   style="fill:#c75c5c" />
	</g><g
     class="st1"
     transform="matrix(4.6093594,0,0,4.6093594,2.5,2.5)"
     id="g24"
     style="opacity:0.2">
		<path
   class="st2"
   d="m 21.2,39.5 c 5.1,-5.1 9.3,-3.5 9.3,-3.5 0,0 1.5,4.3 -3.5,9.3 -5,5 -13.3,8.8 -13.9,8.1 -0.6,-0.5 3.1,-8.8 8.1,-13.9 z"
   id="path22"
   inkscape:connector-curvature="0"
   style="fill:#231f20" />
	</g><g
     transform="matrix(4.6093594,0,0,4.6093594,2.5,2.5)"
     id="g28">
		<path
   class="st4"
   d="m 21.2,37.5 c 5.1,-5.1 9.3,-3.5 9.3,-3.5 0,0 1.5,4.3 -3.5,9.3 -5,5 -13.3,8.8 -13.9,8.1 -0.6,-0.5 3.1,-8.8 8.1,-13.9 z"
   id="path26"
   inkscape:connector-curvature="0"
   style="fill:#e0995e" />
	</g><g
     transform="matrix(4.6093594,0,0,4.6093594,2.5,2.5)"
     id="g32">
		<path
   class="st5"
   d="m 25.5,33.3 c 5.1,-5.1 9.3,-3.5 9.3,-3.5 0,0 1.5,4.3 -3.5,9.3 -5,5 -13.3,8.8 -13.9,8.1 -0.7,-0.6 3,-8.8 8.1,-13.9 z"
   id="path30"
   inkscape:connector-curvature="0"
   style="fill:#f5cf87" />
	</g><g
     class="st1"
     transform="matrix(4.6093594,0,0,4.6093594,2.5,2.5)"
     id="g36"
     style="opacity:0.2">
		<path
   class="st2"
   d="m 43.6,37.1 c -7.8,7.8 -19.8,5.7 -19.8,5.7 0,0 -2.1,-12 5.7,-19.8 7.8,-7.8 19.6,-8.6 21.2,-7.1 1.5,1.5 0.7,13.4 -7.1,21.2 z"
   id="path34"
   inkscape:connector-curvature="0"
   style="fill:#231f20" />
	</g><path
     class="st6"
     d="m 203.47299,164.28728 c -35.95252,35.95252 -91.26483,26.2736 -91.26483,26.2736 0,0 -9.6797,-55.31231 26.2736,-91.264825 35.95329,-35.952511 90.34344,-39.639999 97.71841,-32.726206 6.91399,6.91399 3.22651,61.764921 -32.7262,97.718421 z"
     id="path38"
     inkscape:connector-curvature="0"
     style="fill:#4f5d73;stroke-width:4.60935926;fill-opacity:1" /><g
     class="st1"
     transform="matrix(4.6093594,0,0,4.6093594,2.5,2.5)"
     id="g42"
     style="opacity:0.2">
		<path
   class="st2"
   d="m 21,47 c -0.8,0.8 -1.3,1.5 -2.1,0.7 -0.8,-0.8 -0.1,-1.3 0.7,-2.1 l 9.9,-12.7 c 0.8,-0.8 4.2,-1.5 4.9,-0.7 0.8,0.8 0.1,4.2 -0.7,4.9 z"
   id="path40"
   inkscape:connector-curvature="0"
   style="fill:#231f20" />
	</g><g
     transform="matrix(4.6093594,0,0,4.6093594,2.5,2.5)"
     id="g46">
		<path
   class="st3"
   d="m 21,45 c -0.8,0.8 -1.3,1.5 -2.1,0.7 -0.8,-0.8 -0.1,-1.3 0.7,-2.1 l 9.9,-12.7 c 0.8,-0.8 4.2,-1.5 4.9,-0.7 0.8,0.8 0.1,4.2 -0.7,4.9 z"
   id="path44"
   inkscape:connector-curvature="0"
   style="fill:#c75c5c" />
	</g><g
     class="st1"
     transform="matrix(4.6093594,0,0,4.6093594,2.5,2.5)"
     id="g50"
     style="opacity:0.2">
		<circle
   class="st2"
   cx="39.599998"
   cy="27.1"
   r="4"
   id="circle48"
   style="fill:#231f20" />
	</g><g
     class="st1"
     transform="matrix(4.6093594,0,0,4.6093594,2.5,2.5)"
     id="g54"
     style="opacity:0.2">
		<circle
   class="st2"
   cx="45.299999"
   cy="21.5"
   r="2"
   id="circle52"
   style="fill:#231f20" />
	</g><circle
     class="st0"
     cx="185.02571"
     cy="118.19861"
     r="18.437437"
     id="circle56"
     style="fill:#e0e0d1;stroke-width:4.60935926;fill-opacity:1" /><circle
     class="st0"
     cx="211.30029"
     cy="92.382263"
     r="9.2187185"
     id="circle58"
     style="fill:#e0e0d1;stroke-width:4.60935926;fill-opacity:1" /></g>
</svg>