<?xml version="1.0" encoding="UTF-8"?>
<svg xmlns="http://www.w3.org/2000/svg" width="298" height="300" version="1.1" viewBox="0 0 298 300" xml:space="preserve">
    <circle cx="150" cy="150" r="147.5" fill="#e0e0d1" stroke-width="4.6094" class="st0"/>
    <g class="st1" opacity=".2" transform="matrix(4.6094 0 0 4.6094 2.5 2.5)">
        <path fill="#231f20" d="m32.1 39.7c-1.6 1.5-6.1 12.5-6.1 12.5-0.7 1.2 0.3 2.1 2.6 0.9l8.1-4.4c4.4-2.4 5.2-3.1 5.2-8l-0.8-5.9c-0.3-2-1.8-2.4-3.3-0.8z" class="st2"/>
    </g>
    <g class="st1" opacity=".2" transform="matrix(4.6094 0 0 4.6094 2.5 2.5)">
        <path fill="#231f20" d="m27.1 34.7c-1.6 1.6-12.5 6.1-12.5 6.1-1.2 0.7-2.1-0.3-0.9-2.6l4.3-8.2c2.4-4.4 3.1-5.2 8-5.2l5.9 0.8c2 0.3 2.4 1.8 0.8 3.3z" class="st2"/>
    </g>
    <g transform="matrix(4.6094 0 0 4.6094 2.5 2.5)">
        <path fill="#c75c5c" d="m32.1 37.7c-1.6 1.5-6.1 12.5-6.1 12.5-0.7 1.2 0.3 2.1 2.6 0.9l8.1-4.4c4.4-2.4 5.2-3.1 5.2-8l-0.8-5.9c-0.3-2-1.8-2.4-3.3-0.8z" class="st3"/>
    </g>
    <g transform="matrix(4.6094 0 0 4.6094 2.5 2.5)">
        <path fill="#c75c5c" d="m27.1 32.7c-1.6 1.6-12.5 6.1-12.5 6.1-1.2 0.7-2.1-0.3-0.9-2.6l4.3-8.2c2.4-4.4 3.1-5.2 8-5.2l5.9 0.8c2 0.3 2.4 1.8 0.8 3.3z" class="st3"/>
    </g>
    <g class="st1" opacity=".2" transform="matrix(4.6094 0 0 4.6094 2.5 2.5)">
        <path fill="#231f20" d="m21.2 39.5c5.1-5.1 9.3-3.5 9.3-3.5s1.5 4.3-3.5 9.3-13.3 8.8-13.9 8.1c-0.6-0.5 3.1-8.8 8.1-13.9z" class="st2"/>
    </g>
    <g transform="matrix(4.6094 0 0 4.6094 2.5 2.5)">
        <path fill="#e0995e" d="m21.2 37.5c5.1-5.1 9.3-3.5 9.3-3.5s1.5 4.3-3.5 9.3-13.3 8.8-13.9 8.1c-0.6-0.5 3.1-8.8 8.1-13.9z" class="st4"/>
    </g>
    <g transform="matrix(4.6094 0 0 4.6094 2.5 2.5)">
        <path fill="#f5cf87" d="m25.5 33.3c5.1-5.1 9.3-3.5 9.3-3.5s1.5 4.3-3.5 9.3-13.3 8.8-13.9 8.1c-0.7-0.6 3-8.8 8.1-13.9z" class="st5"/>
    </g>
    <g class="st1" opacity=".2" transform="matrix(4.6094 0 0 4.6094 2.5 2.5)">
        <path fill="#231f20" d="m43.6 37.1c-7.8 7.8-19.8 5.7-19.8 5.7s-2.1-12 5.7-19.8 19.6-8.6 21.2-7.1c1.5 1.5 0.7 13.4-7.1 21.2z" class="st2"/>
    </g>
    <path fill="#4f5d73" stroke-width="4.6094" d="m203.47 164.29c-35.953 35.953-91.265 26.274-91.265 26.274s-9.6797-55.312 26.274-91.265c35.953-35.953 90.343-39.64 97.718-32.726 6.914 6.914 3.2265 61.765-32.726 97.718z" class="st6"/>
    <g class="st1" opacity=".2" transform="matrix(4.6094 0 0 4.6094 2.5 2.5)">
        <path fill="#231f20" d="m21 47c-0.8 0.8-1.3 1.5-2.1 0.7s-0.1-1.3 0.7-2.1l9.9-12.7c0.8-0.8 4.2-1.5 4.9-0.7 0.8 0.8 0.1 4.2-0.7 4.9z" class="st2"/>
    </g>
    <g transform="matrix(4.6094 0 0 4.6094 2.5 2.5)">
        <path fill="#c75c5c" d="m21 45c-0.8 0.8-1.3 1.5-2.1 0.7s-0.1-1.3 0.7-2.1l9.9-12.7c0.8-0.8 4.2-1.5 4.9-0.7 0.8 0.8 0.1 4.2-0.7 4.9z" class="st3"/>
    </g>
    <g class="st1" opacity=".2" transform="matrix(4.6094 0 0 4.6094 2.5 2.5)">
        <circle cx="39.6" cy="27.1" r="4" fill="#231f20" class="st2"/>
    </g>
    <g class="st1" opacity=".2" transform="matrix(4.6094 0 0 4.6094 2.5 2.5)">
        <circle cx="45.3" cy="21.5" r="2" fill="#231f20" class="st2"/>
    </g>
    <circle cx="185.03" cy="118.2" r="18.437" fill="#e0e0d1" stroke-width="4.6094" class="st0"/>
    <circle cx="211.3" cy="92.382" r="9.2187" fill="#e0e0d1" stroke-width="4.6094" class="st0"/>
</svg>
