<svg xmlns="http://www.w3.org/2000/svg" width="400" height="400" viewBox="0 0 400.00001 400" id="svg2">
  <g id="layer1" transform="translate(0 -652.36216)">
    <g id="g166">
      <g transform="translate(100 677.36216) scale(3.125)" id="g3413">
        <g id="Layer_1">
          <g id="g3341">
            <circle class="st0" cx="32" cy="32" r="32" id="circle3343" fill="#4f5d73"/>
          </g>
          <g class="st1" id="g3345" opacity=".2">
            <path class="st2" d="M32.1 39.7C30.5 41.2 26 52.2 26 52.2c-.7 1.2.3 2.1 2.6.9l8.1-4.4c4.4-2.4 5.2-3.1 5.2-8l-.8-5.9c-.3-2-1.8-2.4-3.3-.8l-5.7 5.7z" id="path3347" fill="#231f20"/>
          </g>
          <g class="st1" id="g3349" opacity=".2">
            <path class="st2" d="M27.1 34.7c-1.6 1.6-12.5 6.1-12.5 6.1-1.2.7-2.1-.3-.9-2.6L18 30c2.4-4.4 3.1-5.2 8-5.2l5.9.8c2 .3 2.4 1.8.8 3.3l-5.6 5.8z" id="path3351" fill="#231f20"/>
          </g>
          <g id="g3353">
            <path class="st3" d="M32.1 37.7C30.5 39.2 26 50.2 26 50.2c-.7 1.2.3 2.1 2.6.9l8.1-4.4c4.4-2.4 5.2-3.1 5.2-8l-.8-5.9c-.3-2-1.8-2.4-3.3-.8l-5.7 5.7z" id="path3355" fill="#c75c5c"/>
          </g>
          <g id="g3357">
            <path class="st3" d="M27.1 32.7c-1.6 1.6-12.5 6.1-12.5 6.1-1.2.7-2.1-.3-.9-2.6L18 28c2.4-4.4 3.1-5.2 8-5.2l5.9.8c2 .3 2.4 1.8.8 3.3l-5.6 5.8z" id="path3359" fill="#c75c5c"/>
          </g>
          <g class="st1" id="g3361" opacity=".2">
            <path class="st2" d="M21.2 39.5c5.1-5.1 9.3-3.5 9.3-3.5s1.5 4.3-3.5 9.3c-5 5-13.3 8.8-13.9 8.1-.6-.5 3.1-8.8 8.1-13.9z" id="path3363" fill="#231f20"/>
          </g>
          <g id="g3365">
            <path d="M21.2 37.5c5.1-5.1 9.3-3.5 9.3-3.5s1.5 4.3-3.5 9.3c-5 5-13.3 8.8-13.9 8.1-.6-.5 3.1-8.8 8.1-13.9z" id="path3367" fill="#e0995e"/>
          </g>
          <g id="g3369">
            <path d="M25.5 33.3c5.1-5.1 9.3-3.5 9.3-3.5s1.5 4.3-3.5 9.3c-5 5-13.3 8.8-13.9 8.1-.7-.6 3-8.8 8.1-13.9z" id="path3371" fill="#f5cf87"/>
          </g>
          <g class="st1" id="g3373" opacity=".2">
            <path class="st2" d="M43.6 37.1c-7.8 7.8-19.8 5.7-19.8 5.7s-2.1-12 5.7-19.8c7.8-7.8 19.6-8.6 21.2-7.1 1.5 1.5.7 13.4-7.1 21.2z" id="path3375" fill="#231f20"/>
          </g>
          <g id="g3377">
            <path d="M43.6 35.1c-7.8 7.8-19.8 5.7-19.8 5.7s-2.1-12 5.7-19.8c7.8-7.8 19.6-8.6 21.2-7.1 1.5 1.5.7 13.4-7.1 21.2z" id="path3379" fill="#e0e0d1"/>
          </g>
          <g class="st1" id="g3381" opacity=".2">
            <path class="st2" d="M21 47c-.8.8-1.3 1.5-2.1.7s-.1-1.3.7-2.1l9.9-12.7c.8-.8 4.2-1.5 4.9-.7.8.8.1 4.2-.7 4.9L21 47z" id="path3383" fill="#231f20"/>
          </g>
          <g id="g3385">
            <path class="st3" d="M21 45c-.8.8-1.3 1.5-2.1.7s-.1-1.3.7-2.1l9.9-12.7c.8-.8 4.2-1.5 4.9-.7.8.8.1 4.2-.7 4.9L21 45z" id="path3387" fill="#c75c5c"/>
          </g>
          <g class="st1" id="g3389" opacity=".2">
            <circle class="st2" cx="39.6" cy="27.1" r="4" id="circle3391" fill="#231f20"/>
          </g>
          <g class="st1" id="g3393" opacity=".2">
            <circle class="st2" cx="45.3" cy="21.5" r="2" id="circle3395" fill="#231f20"/>
          </g>
          <g id="g3397">
            <circle class="st0" cx="39.6" cy="25.1" r="4" id="circle3399" fill="#4f5d73"/>
          </g>
          <g id="g3401">
            <circle class="st0" cx="45.3" cy="19.5" r="2" id="circle3403" fill="#4f5d73"/>
          </g>
        </g>
      </g>
      <flowRoot style="line-height:.01%" id="flowRoot3457" xml:space="preserve" font-style="normal" font-weight="400" font-family="sans-serif" letter-spacing="0" word-spacing="0" fill="#000" fill-opacity="1" stroke="none" stroke-width="1" stroke-linecap="butt" stroke-linejoin="miter" stroke-opacity="1">
        <flowRegion id="flowRegion3459">
          <path id="rect3461" d="M144.45181 698.80884h506.08643v82.83251H144.45181z"/>
        </flowRegion>
        <flowPara style="line-height:1.25;-inkscape-font-specification:Quicksand" id="flowPara3463" font-style="normal" font-variant="normal" font-weight="400" font-stretch="normal" font-size="90" font-family="Quicksand">
          Agora
        </flowPara>
      </flowRoot>
      <g id="g97" font-weight="400" font-size="90" font-family="Quicksand" letter-spacing="0" word-spacing="0" text-anchor="middle" fill="#e0995e" stroke="#e0995e" stroke-width="2.5">
        <path id="path3956" style="line-height:125%;-inkscape-font-specification:'Quicksand, Normal';text-align:center" d="M144.25341 944.85966h-7.48124l-5.17659-14.71427h-22.83371l-5.17658 14.71427h-7.12667l19.21719-52.79409h9.3604zm-14.82064-20.7418l-9.25404-25.91839-9.28949 25.91839z"/>
        <path id="path3958" style="line-height:125%;-inkscape-font-specification:'Quicksand, Normal';text-align:center" d="M183.85784 940.35674q0 10.06952-4.57383 14.78518-4.57384 4.71566-14.07606 4.71566-3.15559 0-6.16937-.46093-2.9783-.42547-5.8857-1.24096v-6.80757h.35456q1.63098.63821 5.17659 1.56007 3.5456.95731 7.09121.95731 3.40378 0 5.63752-.81548 2.23373-.8155 3.47469-2.26919 1.24096-1.38279 1.7728-3.33287.53185-1.95009.53185-4.36111v-3.61651q-3.01377 2.41101-5.77934 3.61651-2.73012 1.17006-6.98485 1.17006-7.09121 0-11.27503-5.10568-4.14836-5.14113-4.14836-14.46607 0-5.10568 1.41824-8.79311 1.4537-3.72289 3.93562-6.41755 2.30465-2.51738 5.60206-3.90017 3.29742-1.41824 6.55938-1.41824 3.43924 0 5.74389.70912 2.3401.67366 4.92839 2.09191l.42547-1.70189h6.24027zm-6.66574-6.38209v-21.59276q-2.6592-1.2055-4.96385-1.70188-2.26919-.53185-4.53838-.53185-5.49569 0-8.65129 3.68743-3.15558 3.68743-3.15558 10.70774 0 6.66574 2.3401 10.10498 2.3401 3.43924 7.76488 3.43924 2.9074 0 5.8148-1.09914 2.94285-1.13459 5.38932-3.01376z"/>
        <path id="path3960" style="line-height:125%;-inkscape-font-specification:'Quicksand, Normal';text-align:center" d="M230.73078 925.07517q0 9.67951-4.96386 15.28157-4.96385 5.60206-13.29603 5.60206-8.40309 0-13.36693-5.60206-4.9284-5.60206-4.9284-15.28157 0-9.6795 4.9284-15.28156 4.96384-5.63752 13.36693-5.63752 8.33218 0 13.29603 5.63752 4.96386 5.60206 4.96386 15.28156zm-6.87848 0q0-7.69397-3.01378-11.41686-3.01376-3.75834-8.36763-3.75834-5.42477 0-8.43854 3.75834-2.97831 3.72289-2.97831 11.41686 0 7.44578 3.01376 11.31049 3.01377 3.82925 8.40309 3.82925 5.31842 0 8.33218-3.79379 3.04923-3.82926 3.04923-11.34595z"/>
        <path id="path3962" style="line-height:125%;-inkscape-font-specification:'Quicksand, Normal';text-align:center" d="M265.79683 912.52372h-.35456q-1.48916-.35456-2.9074-.49639-1.38279-.17728-3.29741-.17728-3.08468 0-5.95663 1.38279-2.87194 1.34733-5.53114 3.51016v28.11666h-6.66574v-39.60443h6.66574v5.85025q3.97108-3.19105 6.98484-4.50292 3.04923-1.34733 6.20482-1.34733 1.73734 0 2.51738.10636.78004.0709 2.3401.31911z"/>
        <path id="path3964" style="line-height:125%;-inkscape-font-specification:'Quicksand, Normal';text-align:center" d="M301.64292 944.85966h-6.63028v-4.21927q-.88641.60275-2.41101 1.70189-1.48916 1.06368-2.90741 1.70189-1.66643.81549-3.82925 1.34733-2.16282.5673-5.07022.5673-5.35386 0-9.07675-3.54561-3.72289-3.54561-3.72289-9.0413 0-4.50292 1.91463-7.26849 1.95008-2.80103 5.53115-4.39656 3.61652-1.59552 8.68673-2.16281 5.07022-.56731 10.88502-.85095v-1.02822q0-2.26919-.81549-3.75835-.78004-1.48916-2.26919-2.3401-1.41825-.81549-3.40378-1.09914-1.98554-.28365-4.14837-.28365-2.62375 0-5.85025.70912-3.2265.67367-6.66574 1.98554h-.35456v-6.77211q1.95008-.53184 5.63751-1.17005t7.2685-.63821q4.18382 0 7.2685.70912 3.12013.67367 5.38932 2.3401 2.23373 1.63098 3.40379 4.21928 1.17004 2.58829 1.17004 6.41754zm-6.63028-9.75042V924.0824q-3.04923.17728-7.19759.53184-4.1129.35456-6.52392 1.02823-2.87194.81549-4.64474 2.55283-1.7728 1.7019-1.7728 4.71566 0 3.40379 2.05645 5.14113 2.05645 1.70189 6.27572 1.70189 3.51015 0 6.41755-1.34733 2.9074-1.38278 5.38933-3.29741z"/>
      </g>
      <g id="flowRoot4283" style="line-height:.01%" transform="translate(26.79446 465.43221) scale(.99073)" aria-label="Web Playground" font-weight="400" font-family="Quicksand" letter-spacing="0" word-spacing="0" font-size="40" fill="#4f5d73">
        <path id="path65" style="line-height:1.25;-inkscape-font-specification:Quicksand" d="M58.38266 528.1075q.56 0 .92.32t.36.88l-.08.52-8.84 25.6q-.12.36-.44.56-.28.2-.64.2-.92 0-1.2-.76l-6.92-17.08-6.92 17.08q-.36.76-1.2.76-.36 0-.68-.2-.28-.2-.36-.56l-8.84-25.6q-.12-.24-.12-.48 0-.56.4-.88.44-.36.92-.36.4 0 .72.2.32.2.44.56l7.84 22.88 6.72-16.76q.36-.8 1.12-.76.4-.04.68.2.32.2.48.56l6.68 16.76 7.76-22.88q.32-.76 1.2-.76z"/>
        <path id="path67" style="line-height:1.25;-inkscape-font-specification:Quicksand" d="M80.70953 544.7875q0 .48-.36.84-.36.32-.84.32h-15.12q0 2.4.96 4.32 1 1.88 2.8 3 1.84 1.08 4.32 1.08 1.92 0 3.44-.8t2.44-2.04q.44-.36.84-.36.4 0 .72.32.32.32.32.72 0 .44-.4.84-1.28 1.56-3.24 2.56-1.92 1-4.08 1-3.08 0-5.44-1.32-2.36-1.32-3.68-3.68-1.32-2.4-1.32-5.52 0-3.28 1.28-5.72 1.32-2.48 3.48-3.76 2.16-1.32 4.6-1.32 2.4 0 4.48 1.12 2.12 1.12 3.44 3.28 1.32 2.16 1.36 5.12zm-9.28-7.2q-2.32 0-4.32 1.6-1.96 1.6-2.52 4.6h13.64v-.32q-.2-1.8-1.2-3.12-1-1.36-2.52-2.04-1.48-.72-3.08-.72z"/>
        <path id="path69" style="line-height:1.25;-inkscape-font-specification:Quicksand" d="M95.41516 535.2675q2.64 0 4.8 1.36 2.16 1.36 3.36 3.8 1.24 2.4 1.24 5.44 0 3-1.24 5.48-1.2 2.44-3.36 3.84-2.12 1.4-4.76 1.4-2.28 0-4.24-1.12-1.92-1.16-3.12-3.04v2.64q0 .52-.36.88-.32.36-.84.36t-.88-.36q-.32-.36-.32-.88v-27.24q0-.52.32-.84.36-.36.88-.36t.84.36q.36.32.36.84v11.8q1.08-1.96 3.04-3.16 1.96-1.2 4.28-1.2zm-.2 19.08q2.08 0 3.72-1.12 1.68-1.12 2.6-3.04.96-1.96.96-4.32 0-2.4-.96-4.28-.92-1.92-2.6-3-1.64-1.08-3.72-1.08-2.12 0-3.8 1.08-1.68 1.04-2.6 2.96-.92 1.92-.92 4.32 0 2.4.92 4.36.96 1.92 2.6 3.04 1.68 1.08 3.8 1.08z"/>
        <path id="path71" style="line-height:1.25;-inkscape-font-specification:Quicksand" d="M131.97516 528.1875q2.2 0 3.96 1.04 1.76 1 2.72 2.84 1 1.8 1 4.08 0 2.28-1 4.16-.96 1.88-2.72 2.96-1.76 1.08-3.96 1.08h-8.28v10.64q0 .52-.36.88-.32.32-.84.32t-.88-.32q-.32-.36-.32-.88v-25.6q0-.52.32-.84.36-.36.88-.36zm0 13.84q2.32 0 3.76-1.68t1.44-4.2q0-2.48-1.44-4.04t-3.76-1.56h-8.28v11.48z"/>
        <path id="path73" style="line-height:1.25;-inkscape-font-specification:Quicksand" d="M147.16328 554.9875q0 .52-.36.88-.32.32-.84.32t-.88-.32q-.32-.36-.32-.88v-27.2q0-.52.32-.84.36-.36.88-.36t.84.36q.36.32.36.84z"/>
        <path id="path75" style="line-height:1.25;-inkscape-font-specification:Quicksand" d="M170.34203 535.7475q.52 0 .84.36.36.36.36.88v18q0 .52-.36.88-.32.32-.84.32t-.88-.32q-.32-.36-.32-.88v-2.68q-1 1.8-3 3.04t-4.36 1.24q-2.68 0-4.84-1.4-2.12-1.4-3.36-3.84-1.2-2.44-1.2-5.48 0-3.04 1.24-5.44 1.24-2.44 3.36-3.8 2.16-1.36 4.76-1.36 2.4 0 4.4 1.16 2 1.16 3 3.04v-2.48q0-.52.32-.88.36-.36.88-.36zm-8.32 18.6q2.08 0 3.72-1.08 1.68-1.12 2.6-3.04.96-1.96.96-4.36 0-2.32-.96-4.24-.92-1.92-2.6-3-1.64-1.12-3.72-1.12t-3.76 1.08q-1.64 1.08-2.6 3-.92 1.88-.92 4.28 0 2.4.92 4.36.92 1.92 2.56 3.04 1.68 1.08 3.8 1.08z"/>
        <path id="path77" style="line-height:1.25;-inkscape-font-specification:Quicksand" d="M192.57578 535.3875q.52 0 .84.36.36.32.36.84v17.64q0 3.16-1.24 5.4t-3.44 3.4q-2.2 1.16-4.96 1.16-1.68 0-3.16-.36-1.44-.36-2.4-.96-.84-.52-.84-1.16 0-.08.08-.4.12-.4.4-.6.28-.2.6-.2.24 0 .48.12 2.56 1.4 4.88 1.4 3.32 0 5.24-2.08 1.96-2.08 1.96-5.68v-1.4q-1 1.68-2.88 2.72-1.88 1-4.08 1-3.48 0-5.28-2.08-1.8-2.08-1.8-5.64v-12.28q0-.52.32-.84.36-.36.88-.36t.84.36q.36.32.36.84v11.92q0 2.88 1.24 4.36 1.28 1.48 3.96 1.48 1.64 0 3.12-.8 1.52-.84 2.4-2.16.92-1.36.92-2.88v-11.92q0-.52.32-.84.36-.36.88-.36z"/>
        <path id="path79" style="line-height:1.25;-inkscape-font-specification:Quicksand" d="M216.72516 535.7475q.52 0 .84.36.36.32.36.88v17.32q0 3.12-1.32 5.32-1.28 2.24-3.56 3.4-2.24 1.16-5.16 1.16-1.4 0-2.96-.36-1.52-.36-2.64-.92-1.08-.56-1.24-1.16-.28-.28-.28-.64 0-.4.36-.64.16-.12.4-.12.24 0 .92.28l.84.36q2.48.96 4.64.96 3.56 0 5.56-2.04 2.04-2 2.04-5.44v-2.48q-1 2.16-3.16 3.4-2.16 1.2-4.52 1.2-2.76 0-5-1.36-2.2-1.4-3.48-3.84-1.28-2.44-1.28-5.48 0-3 1.28-5.44 1.28-2.44 3.48-3.8 2.24-1.4 4.96-1.4 2.52 0 4.6 1.28 2.12 1.24 3.12 3v-2.56q0-.52.32-.88.36-.36.88-.36zm-8.68 18.6q2.2 0 3.92-1.04 1.76-1.08 2.72-3 1-1.96 1-4.4 0-2.44-1-4.36-.96-1.92-2.72-2.96-1.72-1.08-3.92-1.08-2.16 0-3.92 1.12-1.72 1.08-2.72 3-.96 1.92-.96 4.28 0 2.4.96 4.32 1 1.92 2.72 3.04 1.76 1.08 3.92 1.08z"/>
        <path id="path81" style="line-height:1.25;-inkscape-font-specification:Quicksand" d="M233.77078 535.2675q.8 0 1.44.32.64.32.64.96 0 .56-.32.92-.32.32-.76.32-.2 0-.8-.2-.56-.2-1.08-.2-1.48 0-2.96 1.16-1.44 1.12-2.4 2.92-.92 1.8-.92 3.64v9.88q0 .52-.36.88-.32.32-.84.32t-.88-.32q-.32-.36-.32-.88v-17.92q0-.52.32-.84.36-.36.88-.36t.84.36q.36.32.36.84v3.52q.92-2.28 2.76-3.76 1.88-1.52 4.4-1.56z"/>
        <path id="path83" style="line-height:1.25;-inkscape-font-specification:Quicksand" d="M257.62203 545.9475q0 3-1.32 5.44-1.32 2.44-3.64 3.84-2.32 1.36-5.16 1.36-2.84 0-5.16-1.36-2.32-1.4-3.64-3.84-1.32-2.44-1.32-5.44 0-3 1.32-5.44 1.32-2.44 3.64-3.84 2.32-1.4 5.16-1.4 2.84 0 5.16 1.4 2.32 1.4 3.64 3.84 1.32 2.44 1.32 5.44zm-2.4 0q0-2.4-1-4.32-1-1.92-2.8-3-1.76-1.12-3.92-1.12t-3.92 1.12q-1.76 1.08-2.8 3-1 1.92-1 4.32 0 2.36 1 4.28 1.04 1.92 2.8 3.04 1.76 1.08 3.92 1.08t3.92-1.08q1.8-1.08 2.8-3 1-1.92 1-4.32z"/>
        <path id="path85" style="line-height:1.25;-inkscape-font-specification:Quicksand" d="M277.85016 535.8675q.52 0 .84.36.36.32.36.84v11.28q0 3.92-2.2 6.04-2.2 2.08-6.08 2.08-3.84 0-6.04-2.08-2.16-2.12-2.16-6.04v-11.28q0-.52.32-.84.36-.36.88-.36t.84.36q.36.32.36.84v11.28q0 2.88 1.52 4.4 1.52 1.48 4.28 1.48 2.8 0 4.32-1.48 1.56-1.52 1.56-4.4v-11.28q0-.52.32-.84.36-.36.88-.36z"/>
        <path id="path87" style="line-height:1.25;-inkscape-font-specification:Quicksand" d="M294.94453 535.2675q3.72 0 5.44 2.2 1.76 2.16 1.76 5.76v11.76q0 .52-.36.88-.36.32-.84.32-.52 0-.88-.32-.32-.36-.32-.88v-11.64q0-2.6-1.32-4.2-1.28-1.64-4-1.64-1.72 0-3.28.8-1.52.8-2.48 2.16-.96 1.32-.96 2.88v11.64q0 .52-.36.88-.32.32-.84.32t-.88-.32q-.32-.36-.32-.88v-17.92q0-.52.32-.84.36-.36.88-.36t.84.36q.36.32.36.84v2.2q1.08-1.72 3.08-2.84 2.04-1.16 4.16-1.16z"/>
        <path id="path89" style="line-height:1.25;-inkscape-font-specification:Quicksand" d="M325.02953 526.5875q.52 0 .84.36.36.32.36.84v27.2q0 .52-.36.88-.32.32-.84.32t-.88-.32q-.32-.36-.32-.88v-2.8q-1 1.84-3 3.12-1.96 1.28-4.36 1.28-2.64 0-4.8-1.36-2.12-1.4-3.36-3.84-1.24-2.44-1.24-5.48 0-3 1.24-5.44 1.24-2.44 3.36-3.8 2.16-1.4 4.76-1.4 2.36 0 4.36 1.2 2 1.16 3.04 3.04v-11.72q0-.52.32-.84.36-.36.88-.36zm-8.32 27.76q2.08 0 3.72-1.08 1.68-1.08 2.6-3 .96-1.96.96-4.36 0-2.36-.96-4.28-.92-1.92-2.6-3-1.64-1.12-3.72-1.12t-3.76 1.12q-1.64 1.08-2.6 3-.92 1.92-.92 4.28 0 2.4.92 4.32.96 1.92 2.6 3.04 1.68 1.08 3.76 1.08z"/>
      </g>
    </g>
  </g>
  <style id="style3338">
    .st0{fill:#4f5d73}.st1{opacity:.2}.st2{fill:#231f20}.st3{fill:#c75c5c}
  </style>
</svg>