<?xml version="1.0" encoding="UTF-8" standalone="no"?>
<!-- Generator: Adobe Illustrator 19.1.0, SVG Export Plug-In . SVG Version: 6.00 Build 0)  -->

<svg
   xmlns:dc="http://purl.org/dc/elements/1.1/"
   xmlns:cc="http://creativecommons.org/ns#"
   xmlns:rdf="http://www.w3.org/1999/02/22-rdf-syntax-ns#"
   xmlns:svg="http://www.w3.org/2000/svg"
   xmlns="http://www.w3.org/2000/svg"
   xmlns:sodipodi="http://sodipodi.sourceforge.net/DTD/sodipodi-0.dtd"
   xmlns:inkscape="http://www.inkscape.org/namespaces/inkscape"
   version="1.1"
   x="0px"
   y="0px"
   viewBox="0 0 298 300"
   xml:space="preserve"
   id="svg70"
   sodipodi:docname="agora_rocket_circle.svg"
   width="298"
   height="300"
   inkscape:version="0.92.3 (2405546, 2018-03-11)"><metadata
   id="metadata76"><rdf:RDF><cc:Work
       rdf:about=""><dc:format>image/svg+xml</dc:format><dc:type
         rdf:resource="http://purl.org/dc/dcmitype/StillImage" /><dc:title></dc:title></cc:Work></rdf:RDF></metadata><defs
   id="defs74" /><sodipodi:namedview
   pagecolor="#ffffff"
   bordercolor="#666666"
   borderopacity="1"
   objecttolerance="10"
   gridtolerance="10"
   guidetolerance="10"
   inkscape:pageopacity="0"
   inkscape:pageshadow="2"
   inkscape:window-width="1920"
   inkscape:window-height="1515"
   id="namedview72"
   showgrid="false"
   inkscape:pagecheckerboard="true"
   inkscape:showpageshadow="true"
   showborder="false"
   inkscape:zoom="3.6875"
   inkscape:cx="158.17581"
   inkscape:cy="97.084746"
   inkscape:window-x="-11"
   inkscape:window-y="701"
   inkscape:window-maximized="0"
   inkscape:current-layer="svg70" />
<style
   type="text/css"
   id="style2">
	.st0{fill:#4F5D73;}
	.st1{opacity:0.2;}
	.st2{fill:#231F20;}
	.st3{fill:#C75C5C;}
	.st4{fill:#E0995E;}
	.st5{fill:#F5CF87;}
	.st6{fill:#E0E0D1;}
</style>
<g
   id="Layer_1"
   transform="scale(4.6875)">
	<g
   id="g6">
		<circle
   class="st0"
   cx="32"
   cy="32"
   r="32"
   id="circle4"
   style="fill:#4f5d73" />
	</g>
	<g
   class="st1"
   id="g10"
   style="opacity:0.2">
		<path
   class="st2"
   d="M 32.1,39.7 C 30.5,41.2 26,52.2 26,52.2 c -0.7,1.2 0.3,2.1 2.6,0.9 l 8.1,-4.4 c 4.4,-2.4 5.2,-3.1 5.2,-8 l -0.8,-5.9 c -0.3,-2 -1.8,-2.4 -3.3,-0.8 z"
   id="path8"
   inkscape:connector-curvature="0"
   style="fill:#231f20" />
	</g>
	<g
   class="st1"
   id="g14"
   style="opacity:0.2">
		<path
   class="st2"
   d="m 27.1,34.7 c -1.6,1.6 -12.5,6.1 -12.5,6.1 -1.2,0.7 -2.1,-0.3 -0.9,-2.6 L 18,30 c 2.4,-4.4 3.1,-5.2 8,-5.2 l 5.9,0.8 c 2,0.3 2.4,1.8 0.8,3.3 z"
   id="path12"
   inkscape:connector-curvature="0"
   style="fill:#231f20" />
	</g>
	<g
   id="g18">
		<path
   class="st3"
   d="M 32.1,37.7 C 30.5,39.2 26,50.2 26,50.2 c -0.7,1.2 0.3,2.1 2.6,0.9 l 8.1,-4.4 c 4.4,-2.4 5.2,-3.1 5.2,-8 l -0.8,-5.9 c -0.3,-2 -1.8,-2.4 -3.3,-0.8 z"
   id="path16"
   inkscape:connector-curvature="0"
   style="fill:#c75c5c" />
	</g>
	<g
   id="g22">
		<path
   class="st3"
   d="m 27.1,32.7 c -1.6,1.6 -12.5,6.1 -12.5,6.1 -1.2,0.7 -2.1,-0.3 -0.9,-2.6 L 18,28 c 2.4,-4.4 3.1,-5.2 8,-5.2 l 5.9,0.8 c 2,0.3 2.4,1.8 0.8,3.3 z"
   id="path20"
   inkscape:connector-curvature="0"
   style="fill:#c75c5c" />
	</g>
	<g
   class="st1"
   id="g26"
   style="opacity:0.2">
		<path
   class="st2"
   d="m 21.2,39.5 c 5.1,-5.1 9.3,-3.5 9.3,-3.5 0,0 1.5,4.3 -3.5,9.3 -5,5 -13.3,8.8 -13.9,8.1 -0.6,-0.5 3.1,-8.8 8.1,-13.9 z"
   id="path24"
   inkscape:connector-curvature="0"
   style="fill:#231f20" />
	</g>
	<g
   id="g30">
		<path
   class="st4"
   d="m 21.2,37.5 c 5.1,-5.1 9.3,-3.5 9.3,-3.5 0,0 1.5,4.3 -3.5,9.3 -5,5 -13.3,8.8 -13.9,8.1 -0.6,-0.5 3.1,-8.8 8.1,-13.9 z"
   id="path28"
   inkscape:connector-curvature="0"
   style="fill:#e0995e" />
	</g>
	<g
   id="g34">
		<path
   class="st5"
   d="m 25.5,33.3 c 5.1,-5.1 9.3,-3.5 9.3,-3.5 0,0 1.5,4.3 -3.5,9.3 -5,5 -13.3,8.8 -13.9,8.1 -0.7,-0.6 3,-8.8 8.1,-13.9 z"
   id="path32"
   inkscape:connector-curvature="0"
   style="fill:#f5cf87" />
	</g>
	<g
   class="st1"
   id="g38"
   style="opacity:0.2">
		<path
   class="st2"
   d="m 43.6,37.1 c -7.8,7.8 -19.8,5.7 -19.8,5.7 0,0 -2.1,-12 5.7,-19.8 7.8,-7.8 19.6,-8.6 21.2,-7.1 1.5,1.5 0.7,13.4 -7.1,21.2 z"
   id="path36"
   inkscape:connector-curvature="0"
   style="fill:#231f20" />
	</g>
	<g
   id="g42">
		<path
   class="st6"
   d="m 43.6,35.1 c -7.8,7.8 -19.8,5.7 -19.8,5.7 0,0 -2.1,-12 5.7,-19.8 7.8,-7.8 19.6,-8.6 21.2,-7.1 1.5,1.5 0.7,13.4 -7.1,21.2 z"
   id="path40"
   inkscape:connector-curvature="0"
   style="fill:#e0e0d1" />
	</g>
	<g
   class="st1"
   id="g46"
   style="opacity:0.2">
		<path
   class="st2"
   d="m 21,47 c -0.8,0.8 -1.3,1.5 -2.1,0.7 v 0 c -0.8,-0.8 -0.1,-1.3 0.7,-2.1 l 9.9,-12.7 c 0.8,-0.8 4.2,-1.5 4.9,-0.7 v 0 c 0.8,0.8 0.1,4.2 -0.7,4.9 z"
   id="path44"
   inkscape:connector-curvature="0"
   style="fill:#231f20" />
	</g>
	<g
   id="g50">
		<path
   class="st3"
   d="m 21,45 c -0.8,0.8 -1.3,1.5 -2.1,0.7 v 0 c -0.8,-0.8 -0.1,-1.3 0.7,-2.1 l 9.9,-12.7 c 0.8,-0.8 4.2,-1.5 4.9,-0.7 v 0 c 0.8,0.8 0.1,4.2 -0.7,4.9 z"
   id="path48"
   inkscape:connector-curvature="0"
   style="fill:#c75c5c" />
	</g>
	<g
   class="st1"
   id="g54"
   style="opacity:0.2">
		<circle
   class="st2"
   cx="39.599998"
   cy="27.1"
   r="4"
   id="circle52"
   style="fill:#231f20" />
	</g>
	<g
   class="st1"
   id="g58"
   style="opacity:0.2">
		<circle
   class="st2"
   cx="45.299999"
   cy="21.5"
   r="2"
   id="circle56"
   style="fill:#231f20" />
	</g>
	<g
   id="g62">
		<circle
   class="st0"
   cx="39.599998"
   cy="25.1"
   r="4"
   id="circle60"
   style="fill:#4f5d73" />
	</g>
	<g
   id="g66">
		<circle
   class="st0"
   cx="45.299999"
   cy="19.5"
   r="2"
   id="circle64"
   style="fill:#4f5d73" />
	</g>
</g>
<g
   id="Layer_2"
   transform="scale(4.6875)">
</g>
</svg>