<?xml version="1.0" encoding="UTF-8" standalone="no"?>
<!--Generator: Adobe Illustrator 19.1.0, SVG Export Plug-In . SVG Version: 6.00 Build 0)-->
<svg xmlns="http://www.w3.org/2000/svg" xmlns:cc="http://creativecommons.org/ns#" xmlns:dc="http://purl.org/dc/elements/1.1/" xmlns:inkscape="http://www.inkscape.org/namespaces/inkscape" xmlns:rdf="http://www.w3.org/1999/02/22-rdf-syntax-ns#" xmlns:sodipodi="http://sodipodi.sourceforge.net/DTD/sodipodi-0.dtd" xmlns:svg="http://www.w3.org/2000/svg" id="svg2" width="300" height="300" x="0px" y="0px" version="1.1" viewBox="0 0 300 300" inkscape:label="rocket" inkscape:version="0.92.3 (2405546, 2018-03-11)" sodipodi:docname="agora_rocket.svg" xml:space="preserve">
    <metadata id="metadata76">
        <rdf:RDF>
            <cc:Work rdf:about="">
                <dc:format>
                    image/svg+xml
                </dc:format>
                <dc:type rdf:resource="http://purl.org/dc/dcmitype/StillImage"/>
                <dc:title/>
            </cc:Work>
        </rdf:RDF>
    </metadata>
    <defs id="defs74"/>
    <sodipodi:namedview id="namedview72" bordercolor="#666666" borderopacity="0" gridtolerance="10" guidetolerance="10" objecttolerance="10" pagecolor="#ffffff" showgrid="false" inkscape:current-layer="svg2" inkscape:cx="167.12604" inkscape:cy="117.62471" inkscape:pageopacity="0" inkscape:pageshadow="2" inkscape:window-height="1875" inkscape:window-maximized="1" inkscape:window-width="3000" inkscape:window-x="-13" inkscape:window-y="-13" inkscape:zoom="2.6074563"/>
    <style id="style4" type="text/css">
        .st0{fill:#4F5D73;} .st1{opacity:0.2;} .st2{fill:#231F20;} .st3{fill:#C75C5C;} .st4{fill:#E0995E;} .st5{fill:#F5CF87;} .st6{fill:#E0E0D1;}
    </style>
    <g id="rocket" inkscape:label="rocket">
        <title id="title3972">
            Rocket
        </title>
        <g id="rocket.fin.bottom.shadow" class="st1" style="opacity:0.2" transform="matrix(7.4280115,0,0,7.4280115,-90.832683,-98.63662)">
            <title id="title3912">
                Bottom Fin Shadow
            </title>
            <path id="path13" d="M 32.1,39.7 C 30.5,41.2 26,52.2 26,52.2 c -0.7,1.2 0.3,2.1 2.6,0.9 l 8.1,-4.4 c 4.4,-2.4 5.2,-3.1 5.2,-8 l -0.8,-5.9 c -0.3,-2 -1.8,-2.4 -3.3,-0.8 z" class="st2" style="fill:#231f20" inkscape:connector-curvature="0"/>
        </g>
        <g id="rocket.fin.top.shadow" class="st1" style="opacity:0.2" transform="matrix(7.4280115,0,0,7.4280115,-90.832683,-98.63662)">
            <title id="title3908">
                Top Fin Shadow
            </title>
            <path id="path17" d="m 27.1,34.7 c -1.6,1.6 -12.5,6.1 -12.5,6.1 -1.2,0.7 -2.1,-0.3 -0.9,-2.6 L 18,30 c 2.4,-4.4 3.1,-5.2 8,-5.2 l 5.9,0.8 c 2,0.3 2.4,1.8 0.8,3.3 z" class="st2" style="fill:#231f20" inkscape:connector-curvature="0"/>
        </g>
        <g id="rocket.fin.bottom" transform="matrix(7.4280115,0,0,7.4280115,-90.832683,-98.63662)">
            <title id="title3910">
                Bottom Fin
            </title>
            <path id="path21" d="M 32.1,37.7 C 30.5,39.2 26,50.2 26,50.2 c -0.7,1.2 0.3,2.1 2.6,0.9 l 8.1,-4.4 c 4.4,-2.4 5.2,-3.1 5.2,-8 l -0.8,-5.9 c -0.3,-2 -1.8,-2.4 -3.3,-0.8 z" class="st3" style="fill:#c75c5c" inkscape:connector-curvature="0"/>
        </g>
        <g id="rocket.fin.top" transform="matrix(7.4280115,0,0,7.4280115,-90.832683,-98.63662)">
            <title id="title3906">
                Top Fin
            </title>
            <path id="path25" d="m 27.1,32.7 c -1.6,1.6 -12.5,6.1 -12.5,6.1 -1.2,0.7 -2.1,-0.3 -0.9,-2.6 L 18,28 c 2.4,-4.4 3.1,-5.2 8,-5.2 l 5.9,0.8 c 2,0.3 2.4,1.8 0.8,3.3 z" class="st3" style="fill:#c75c5c" inkscape:connector-curvature="0"/>
        </g>
        <g id="rocket.flame.large.shadow" class="st1" style="opacity:0.2" transform="matrix(7.4280115,0,0,7.4280115,-90.832683,-98.63662)">
            <title id="title3922">
                Large Flame Shadow
            </title>
            <path id="path29" d="m 21.2,39.5 c 5.1,-5.1 9.3,-3.5 9.3,-3.5 0,0 1.5,4.3 -3.5,9.3 -5,5 -13.3,8.8 -13.9,8.1 -0.6,-0.5 3.1,-8.8 8.1,-13.9 z" class="st2" style="fill:#231f20" inkscape:connector-curvature="0"/>
        </g>
        <g id="rocket.flame.large" transform="matrix(7.4280115,0,0,7.4280115,-90.832683,-98.63662)">
            <title id="title3920">
                Large Flame
            </title>
            <path id="path33" d="m 21.2,37.5 c 5.1,-5.1 9.3,-3.5 9.3,-3.5 0,0 1.5,4.3 -3.5,9.3 -5,5 -13.3,8.8 -13.9,8.1 -0.6,-0.5 3.1,-8.8 8.1,-13.9 z" class="st4" style="fill:#e0995e" inkscape:connector-curvature="0"/>
        </g>
        <g id="rocket.flame.small" transform="matrix(7.4280115,0,0,7.4280115,-90.832683,-98.63662)">
            <title id="title3918">
                Small Flame
            </title>
            <path id="path37" d="m 25.5,33.3 c 5.1,-5.1 9.3,-3.5 9.3,-3.5 0,0 1.5,4.3 -3.5,9.3 -5,5 -13.3,8.8 -13.9,8.1 -0.7,-0.6 3,-8.8 8.1,-13.9 z" class="st5" style="fill:#f5cf87" inkscape:connector-curvature="0"/>
        </g>
        <g id="rocket.body.shadow" class="st1" style="opacity:0.2" transform="matrix(7.4280115,0,0,7.4280115,-90.832683,-98.63662)">
            <title id="title3904">
                Body Shadow
            </title>
            <path id="path41" d="m 43.6,37.1 c -7.8,7.8 -19.8,5.7 -19.8,5.7 0,0 -2.1,-12 5.7,-19.8 7.8,-7.8 19.6,-8.6 21.2,-7.1 1.5,1.5 0.7,13.4 -7.1,21.2 z" class="st2" style="fill:#231f20" inkscape:connector-curvature="0"/>
        </g>
        <g id="rocket.body" transform="matrix(7.4280115,0,0,7.4280115,-90.832683,-98.63662)">
            <title id="title3902">
                Body
            </title>
            <path id="path45" d="m 43.6,35.1 c -7.8,7.8 -19.8,5.7 -19.8,5.7 0,0 -2.1,-12 5.7,-19.8 7.8,-7.8 19.6,-8.6 21.2,-7.1 1.5,1.5 0.7,13.4 -7.1,21.2 z" class="st6" style="fill:#e0e0d1" inkscape:connector-curvature="0"/>
        </g>
        <g id="rocket.fin.middle.shadow" class="st1" style="opacity:0.2" transform="matrix(7.4280115,0,0,7.4280115,-90.832683,-98.63662)">
            <title id="title3916">
                Middle Fin Shadow
            </title>
            <path id="path49" d="m 21,47 c -0.8,0.8 -1.3,1.5 -2.1,0.7 v 0 c -0.8,-0.8 -0.1,-1.3 0.7,-2.1 l 9.9,-12.7 c 0.8,-0.8 4.2,-1.5 4.9,-0.7 v 0 c 0.8,0.8 0.1,4.2 -0.7,4.9 z" class="st2" style="fill:#231f20" inkscape:connector-curvature="0"/>
        </g>
        <g id="rocket.fin.middle" transform="matrix(7.4280115,0,0,7.4280115,-90.832683,-98.63662)">
            <title id="title3914">
                Middle Fin
            </title>
            <path id="path53" d="m 21,45 c -0.8,0.8 -1.3,1.5 -2.1,0.7 v 0 c -0.8,-0.8 -0.1,-1.3 0.7,-2.1 l 9.9,-12.7 c 0.8,-0.8 4.2,-1.5 4.9,-0.7 v 0 c 0.8,0.8 0.1,4.2 -0.7,4.9 z" class="st3" style="fill:#c75c5c" inkscape:connector-curvature="0"/>
        </g>
        <g id="rocket.window.large.shadow" class="st1" style="opacity:0.2" transform="matrix(7.4280115,0,0,7.4280115,-90.832683,-98.63662)">
            <title id="title3900">
                Large Window Shadow
            </title>
            <circle id="circle57" cx="39.599998" cy="27.1" r="4" class="st2" style="fill:#231f20"/>
        </g>
        <g id="rocket.window.small.shadow" class="st1" style="opacity:0.2" transform="matrix(7.4280115,0,0,7.4280115,-90.832683,-98.63662)">
            <title id="title3898">
                Small Window Shadow
            </title>
            <circle id="circle61" cx="45.299999" cy="21.5" r="2" class="st2" style="fill:#231f20"/>
        </g>
        <g id="rocket.window.large" transform="matrix(7.4280115,0,0,7.4280115,-90.832683,-98.63662)">
            <title id="title3896">
                Large Window
            </title>
            <circle id="circle65" cx="39.599998" cy="25.1" r="4" class="st0" style="fill:#4f5d73"/>
        </g>
        <g id="rocket.window.small" transform="matrix(7.4280115,0,0,7.4280115,-90.832683,-98.63662)">
            <title id="title3894">
                Small Window
            </title>
            <circle id="circle69" cx="45.299999" cy="19.5" r="2" class="st0" style="fill:#4f5d73"/>
        </g>
    </g>
</svg>
