<?xml version="1.0" encoding="UTF-8"?>
<svg width="125" height="125" version="1.1" viewBox="0 0 125 125" xmlns="http://www.w3.org/2000/svg" xmlns:cc="http://creativecommons.org/ns#" xmlns:dc="http://purl.org/dc/elements/1.1/" xmlns:rdf="http://www.w3.org/1999/02/22-rdf-syntax-ns#">
 <metadata>
  <rdf:RDF>
   <cc:Work rdf:about="">
    <dc:format>image/svg+xml</dc:format>
    <dc:type rdf:resource="http://purl.org/dc/dcmitype/StillImage"/>
    <dc:title/>
   </cc:Work>
  </rdf:RDF>
 </metadata>
 <style>path{fill:#ed225d}.svglink{border:none}</style>
 <g transform="matrix(1.0099 0 0 1.0099 -2.5505 4.933)" fill="#ed225d">
  <path d="m36.432 25.957c-2.626 0-4.9965 0.30048-7.1035 0.89648-2.11 0.598-4.0009 1.3556-5.6719 2.2676-1.672 0.917-3.0853 1.9515-4.2383 3.1055-1.155 1.154-2.0897 2.2893-2.8047 3.4023h-0.35938v-7.998h-13.729v85.959h14.326v-36.295h0.23828c1.83 2.868 4.4353 5.1346 7.8203 6.8066 3.382 1.67 7.1021 2.5059 11.162 2.5059 4.376 0 8.2968-0.81627 11.76-2.4473 3.463-1.628 6.4069-3.8185 8.8359-6.5645 2.426-2.746 4.2993-5.9689 5.6113-9.6699 1.314-3.701 1.9707-7.6609 1.9707-11.879s-0.6763-8.1583-2.0293-11.82c-1.354-3.66-3.2645-6.8438-5.7305-9.5508-2.468-2.705-5.4139-4.8356-8.8359-6.3906-3.423-1.551-7.1627-2.3281-11.223-2.3281zm-3.2246 11.701c2.785 0 5.2132 0.53733 7.2832 1.6113 2.07 1.076 3.7788 2.4903 5.1328 4.2383 1.353 1.752 2.3689 3.7222 3.0469 5.9102 0.676 2.189 1.0137 4.398 1.0137 6.627a22.937 22.937 0 0 1-1.0137 6.6855c-0.678 2.229-1.6939 4.2188-3.0469 5.9688-1.354 1.752-3.0638 3.1838-5.1328 4.2988-2.07 1.115-4.4982 1.6719-7.2832 1.6719-2.627 0-4.975-0.53533-7.043-1.6113a17.214 17.214 0 0 1-5.3125-4.2363 18.438 18.438 0 0 1-3.3438-5.9121c-0.758-2.187-1.1348-4.396-1.1348-6.625 0-2.227 0.37677-4.4565 1.1348-6.6855a18.321 18.321 0 0 1 3.3438-5.9707 18.075 18.075 0 0 1 5.3125-4.2988c2.068-1.115 4.416-1.6719 7.043-1.6719z"/>
  <path d="m124.09 45.836c-1.473-3.301-3.521-6.088-6.148-8.357-2.626-2.268-5.711-4-9.252-5.193-3.543-1.193-7.384-1.791-11.521-1.791-1.513 0-3.204 0.082-5.074 0.238-1.871 0.162-3.482 0.439-4.835 0.838l0.835-18.268h34.504v-12.893h-48.114l-1.433 46.201c1.271-0.635 2.725-1.232 4.357-1.791a66.991 66.991 0 0 1 5.014-1.49 45.797 45.797 0 0 1 5.254-1.016 38.588 38.588 0 0 1 5.074-0.357c2.307 0 4.576 0.258 6.805 0.775 2.228 0.518 4.238 1.434 6.029 2.746s3.242 3.045 4.358 5.193c1.113 2.148 1.671 4.855 1.671 8.119 0 2.547-0.418 4.836-1.254 6.865-0.835 2.027-1.97 3.721-3.401 5.072a14.723 14.723 0 0 1-5.016 3.104c-1.91 0.719-3.939 1.076-6.089 1.076-3.819 0-7.124-1.016-9.909-3.045-2.787-2.029-4.775-4.715-5.97-8.059l-0.159 0.059-10.368 9.715c2.097 3.42 4.8 6.281 8.14 8.553 4.854 3.301 10.823 4.955 17.909 4.955 4.218 0 8.197-0.678 11.938-2.029 3.74-1.352 7.004-3.303 9.79-5.852 2.785-2.545 4.994-5.67 6.627-9.371 1.63-3.701 2.446-7.898 2.446-12.596 1e-3 -4.298-0.735-8.096-2.208-11.401z"/>
 </g>
</svg>
